<mxfile host="Electron" modified="2024-03-21T10:58:14.892Z" agent="Mozilla/5.0 (Windows NT 10.0; Win64; x64) AppleWebKit/537.36 (KHTML, like Gecko) draw.io/21.1.2 Chrome/106.0.5249.199 Electron/21.4.3 Safari/537.36" etag="8s8y982sPIS-ssmntmag" version="21.1.2" type="device">
  <diagram name="第 1 页" id="-A7P_UqvXqQwU8FmpNUI">
    <mxGraphModel dx="1434" dy="836" grid="1" gridSize="10" guides="1" tooltips="1" connect="1" arrows="1" fold="1" page="1" pageScale="1" pageWidth="1169" pageHeight="827" math="0" shadow="0">
      <root>
        <mxCell id="0" />
        <mxCell id="1" parent="0" />
        <mxCell id="gK9rK_hi8yjl6UL4V2o0-9" value="" style="rounded=1;whiteSpace=wrap;html=1;fillColor=#f5f5f5;fontColor=#333333;strokeColor=#666666;" vertex="1" parent="1">
          <mxGeometry x="363" y="100" width="485" height="240" as="geometry" />
        </mxCell>
        <mxCell id="gK9rK_hi8yjl6UL4V2o0-5" value="BY DC" style="text;html=1;strokeColor=none;fillColor=none;align=center;verticalAlign=middle;whiteSpace=wrap;rounded=0;" vertex="1" parent="1">
          <mxGeometry x="120" y="490" width="60" height="30" as="geometry" />
        </mxCell>
        <mxCell id="gK9rK_hi8yjl6UL4V2o0-6" value="NM DC" style="text;html=1;strokeColor=none;fillColor=none;align=center;verticalAlign=middle;whiteSpace=wrap;rounded=0;" vertex="1" parent="1">
          <mxGeometry x="630" y="500" width="60" height="30" as="geometry" />
        </mxCell>
        <mxCell id="gK9rK_hi8yjl6UL4V2o0-14" value="" style="group" vertex="1" connectable="0" parent="1">
          <mxGeometry x="408" y="190" width="170" height="110" as="geometry" />
        </mxCell>
        <mxCell id="gK9rK_hi8yjl6UL4V2o0-12" value="" style="ellipse;shape=cloud;whiteSpace=wrap;html=1;fillColor=#dae8fc;strokeColor=#6c8ebf;" vertex="1" parent="gK9rK_hi8yjl6UL4V2o0-14">
          <mxGeometry width="170" height="110" as="geometry" />
        </mxCell>
        <mxCell id="gK9rK_hi8yjl6UL4V2o0-13" value="LMP" style="ellipse;whiteSpace=wrap;html=1;aspect=fixed;fillColor=#d5e8d4;strokeColor=#82b366;" vertex="1" parent="gK9rK_hi8yjl6UL4V2o0-14">
          <mxGeometry x="70" y="48" width="30" height="30" as="geometry" />
        </mxCell>
        <mxCell id="gK9rK_hi8yjl6UL4V2o0-11" value="" style="sketch=0;html=1;dashed=0;whitespace=wrap;fillColor=#2875E2;strokeColor=#ffffff;points=[[0.005,0.63,0],[0.1,0.2,0],[0.9,0.2,0],[0.5,0,0],[0.995,0.63,0],[0.72,0.99,0],[0.5,1,0],[0.28,0.99,0]];verticalLabelPosition=bottom;align=center;verticalAlign=top;shape=mxgraph.kubernetes.icon;prIcon=master" vertex="1" parent="gK9rK_hi8yjl6UL4V2o0-14">
          <mxGeometry x="15" width="35" height="50" as="geometry" />
        </mxCell>
        <mxCell id="gK9rK_hi8yjl6UL4V2o0-15" value="Intranet" style="text;html=1;strokeColor=none;fillColor=none;align=center;verticalAlign=middle;whiteSpace=wrap;rounded=0;" vertex="1" parent="1">
          <mxGeometry x="398" y="120" width="60" height="30" as="geometry" />
        </mxCell>
        <mxCell id="gK9rK_hi8yjl6UL4V2o0-25" value="" style="group" vertex="1" connectable="0" parent="1">
          <mxGeometry x="628" y="120" width="190" height="70" as="geometry" />
        </mxCell>
        <mxCell id="gK9rK_hi8yjl6UL4V2o0-21" value="" style="rounded=1;whiteSpace=wrap;html=1;fillColor=none;dashed=1;" vertex="1" parent="gK9rK_hi8yjl6UL4V2o0-25">
          <mxGeometry width="190" height="70" as="geometry" />
        </mxCell>
        <mxCell id="gK9rK_hi8yjl6UL4V2o0-16" value="" style="image;sketch=0;aspect=fixed;html=1;points=[];align=center;fontSize=12;image=img/lib/mscae/Cache_Redis_Product.svg;" vertex="1" parent="gK9rK_hi8yjl6UL4V2o0-25">
          <mxGeometry x="60" y="20" width="47.62" height="40" as="geometry" />
        </mxCell>
        <mxCell id="gK9rK_hi8yjl6UL4V2o0-17" value="" style="image;aspect=fixed;html=1;points=[];align=center;fontSize=12;image=img/lib/azure2/databases/Azure_Database_MySQL_Server.svg;" vertex="1" parent="gK9rK_hi8yjl6UL4V2o0-25">
          <mxGeometry x="140" y="20" width="31.5" height="42" as="geometry" />
        </mxCell>
        <mxCell id="gK9rK_hi8yjl6UL4V2o0-22" value="DBSS" style="text;html=1;strokeColor=none;fillColor=none;align=center;verticalAlign=middle;whiteSpace=wrap;rounded=0;" vertex="1" parent="gK9rK_hi8yjl6UL4V2o0-25">
          <mxGeometry width="60" height="30" as="geometry" />
        </mxCell>
        <mxCell id="gK9rK_hi8yjl6UL4V2o0-31" value="" style="group" vertex="1" connectable="0" parent="1">
          <mxGeometry x="628" y="230" width="190" height="70" as="geometry" />
        </mxCell>
        <mxCell id="gK9rK_hi8yjl6UL4V2o0-27" value="" style="rounded=1;whiteSpace=wrap;html=1;fillColor=none;dashed=1;" vertex="1" parent="gK9rK_hi8yjl6UL4V2o0-31">
          <mxGeometry width="190" height="70" as="geometry" />
        </mxCell>
        <mxCell id="gK9rK_hi8yjl6UL4V2o0-18" value="" style="shape=image;aspect=fixed;image=data:image/jpeg,/9j/4AAQSkZJRgABAQEASABIAAD/2wBDAAgGBgcGBQgHBwcJCQgKDBQNDAsLDBkSEw8UHRofHh0aHBwgJC4nICIsIxwcKDcpLDAxNDQ0Hyc5PTgyPC4zNDL/2wBDAQkJCQwLDBgNDRgyIRwhMjIyMjIyMjIyMjIyMjIyMjIyMjIyMjIyMjIyMjIyMjIyMjIyMjIyMjIyMjIyMjIyMjL/wAARCAEdAR0DASIAAhEBAxEB/8QAGwABAAEFAQAAAAAAAAAAAAAAAAYBAgQFBwP/xABHEAACAQMCAgUGDAMGBQUAAAAAAQIDBBEFBhIhEzFBUXMHFTQ1cbEUIjI2UlRhcoGRksEWk6EjJDNCYoMmU4LR4RclQ1V0/8QAGwEBAAIDAQEAAAAAAAAAAAAAAAIGAQQFAwf/xAAyEQACAgEBBwIEBgIDAQAAAAAAAQIDEQQFEhMhMTRxQVIVMjNRBhQiQmGRcoEjscGh/9oADAMBAAIRAxEAPwDv4AAAAABRvBUw9Tv6Om2FW6rP4lNZwut/YRlJRTb6GYxcnhdTKyMo5Ve7z1e7qydKqrennlGC54+1mujreqQm5q+rcT/1HHntqmMsRWTt17BvlHMmkdmbGcnIYbo1qm8q+n7GkyS7e3rVubyNpqKjmo8QqxWOfcz1o2tRbLd5rJ437G1FMHPqkToIIqdU5IKMqUYAKZLKtSNKnOpPlGKbZzXUd76lWuZq1cKFFPEeWZNd5p6rWV6ZJz9Tb0mit1Umq/Q6bkZOQy3RrU1h388exGJDV9Rp1+mje1uPvc2c97cqzyizprYF3rJHaclTmOlb3v7a4hG+kq9BvEpYxKP2nSqNaFejCrTalCaTT7zo6XWV6lZgczV6K3SyxYeoKFTbNQAAAAAAAAAAAAAAAAAAAAAAAAAAAoRLf9Vx0WFJZxOosv2EtInv6K8xxl3VUaWvz+Wnj7G5s/H5qGfuc1XPLAQKQy/gupScbilJNpqaaa9paX0Vm5pLvqR95Ov5kRn8rO30XmlTb7Yo9TzorFKH3Uehf4fKj5vLqAwCRg1+ty4dGu5LspP3HGO47Lr3qO88N+44yupFZ2788fBafw98k/JUAHBLGH1HWtpVZVtt2kpdai1+TOSvqOubUgqe3LNLtjk7ew88Z+DgbfxwY+TdFShUtJUgAAAAAAAAAAAAAAAAAAAAAAAAAAARTf3qBeLElZFN+89v/wC5E09d20/Bt7P7qHk5n3gAo7PoAPS3Wbyh4kfeeZ6W3plDxI+8nX86I2fIzt9L/Cj7D0POl/hx9h6F/j0R83fUBgMkYNZr/qK88NnGl1I7Lr/qO88JnG11FZ259SPgtX4f+nPyAAcEsRR9R2LbfLb9l4Zx19R2Hbbzt6z8M7mw/qy8Fe/EH0o+TbFShUtBVAAAAAAAAAAAAAAAAAAAAAAAAAAAARXfnzf/ANyJKSLb8+b/APuRNTXdvPwbez+5h5OY9xUp3FSjH0AF9D0qj4kfeWF9H0il9+PvJ1/MiM/lZ3Cl/hR+6j0POl/hQ+6j0Rf49EfN31AYBIwazX/Ud54TON9iOya/6jvPCZxtdSKztz6kfBavw/8ATn5AAOCWIo+o6/td527Z/cOQPqOvbW5bcs/uHc2H9WXgr/4g+jHybkqAWgqYAAAAAAAAAAAAAAAAAAAAAAAAAABTsItv35v/AO5ElRFN+v8A9g/3Ymnr+2n4NvZ/dQ8nMu4qAUdn0AF1PlWp/fXvLRnHxl1p5RKPVGJ/KzuVD/Ch91HqjA0m7p32mW9enJNSgup9pmpl+rknBNHzeacZNMuBTJRvB6ETX696jvPCfuONLqOqbx1KnZaHWp8a6WsuCETlaKvtuadsUvRFr2BBqqUn6sAA4ZYSj6mdg21hbes8fQOQdfI6VsfVKdxpCs3L+2oPDT7U+aZ2dizUbmn6o4W3oOVCa9GSwqW5K5wWsqBUFMjIBUFPxH4gFQUyUzzMAuBRPJUyAAAAAAAAAAAAAAAARTf3qBeLElZFN++oF4sTT13bT8G3s/uoeTma7QAUhn0ABgGAZ+m61qGlZVpXcYPnwSWUbiO+9XSxii/t4SMA2a9ZfWsRkzVs0Onse9OCbJR/Hmr/AEKP6Skt96tKLXDRT7+EjAJ/ENT72efwzSexGRe391qNy693WlUn2dy9hjgGrKbm8yeWbkIRgt2KwgACJMHrbXNezrxr29WVOrHqlFnkDMZOLyiMoqSw+hJ6O+9WhFKao1H3uOGXPfuq55Qor8GRYG38Q1PvZpfDNJnO4iT/AMeav9Gh+kfx5q/dQ/SRgD4hqfex8M0nsRKFv3VvoUf0lf491b6FD8mRYD4hqfex8M0nsRKHvzV/o0P0mTZ+UC6hWir23hOnnnKHJohwJQ2jqVLO8RnsvSyWNzB3CzuqV5bU7ijLipzWYs9yJbAuJVNFnRk89FNpfYmS0t+mt4tUZ/cpepp4Nsq/swAD3PAAAAAAAAAAAAAEU396gXixJWRTfvqBeLE09d20/Bt7P7qHk5mAgUhn0AAAwZAAAAAAAAAAAAAA7AYAAGAAM/YBgAAAAABA6F5O/Qbr769xNSG+T1LzZcPtdT9iZF22d20ChbTedXPyAAbxogAAAAAAAAAAADtIpv31AvFiSsim/vUC8WJp67tp+Dc2f3UPJzJdpULt9oKQy/gAGDIAAAAAAAAAAAAKwhOpUjTpwlOcnhRistlDoGw9KpRspahVgpVaksQb/wAqRt6PSvU2qC5GlrtWtLU7HzI1Q2jrdeKatOBP6csGR/A2tY+RR/GZ1PCRUsK2LR6tlae3dTnkkcmq7M1ukm+ghPH0ZGmurS5sqvRXNGdKfdJYydxa5Gq1zSLfVtOq0akFx8LcJ45xZ4X7FgoN1vme+n29ZvpWpYOPArKEqc5U5/Ki3F+1FCtyWHhlqTTWUAAYQOjeT31XceJ+xMSHeT31VceJ+xMS7bO7aHgoW0u6n5AAN40QAAAAAAAAAAAARTf3qBeLElZFN/eoF4sTT13bT8G5oO6h5OZ9/tA7/aCjsv4AAMgAAAAAAAAAAAD7TrW0qahtu0WP8r95yV9R1vaklLbdm19HH9Tt7D+s/BwNv/Qj5N2VKFS0lSDLWspouLTDBxfWYKnrd7BdSqswjP1yXFr19JdTqswCg3/Vl5Poum+jHwgADyR7HRvJ76quPE/YmJDvJ76quPE/YmJdtndtDwUHaXdT8gAG8aQAAAAAAAAAAAAIpv71AvFiSsim/vUC8WJp67tp+Db2f3UPJzPv9oHawUdn0AAAGQAAAAAAAAAAAYH2HS9iXsa+hq3T+NQk019j5nNDN0rVrnR7xXFs/snBvlJG/s/UrT3bz6HP2lpHqaHGPVc0dpKkPtN/6fVglc06tGfby4kZ38aaLjPwl/pZao67TyWVNFPloNTF4cGSFmPe3MLOzq3FWSjCnFttkfr770ilF9HKrVl2KMCHa9ui61tdCo9Dap/IT5y9pr6naVNcHuvLNjTbK1Fs1vRwv5NLXqu4uKtZ9dSTl+bLAuoFPk8vLLvFJLCAAMIyzo3k99VXHifsTEhfk8lnT7ldiqfsTQu2zu2gULaSxqp+QADeNEAAAAAAAAAAAAEU396gXixJURXf3qFeLE09f20/BubP7qHk5mgAUhl/QABgyAAAAAAAAAAAAAADBTHeVXIAZA5lMd5UDIAAAA7AOwIHQvJ36DdffXuJqQryeeg3X317ial22b20Sh7U7ufkAA3jQAAAAAAAAAAAAKEU38m9AWP+aiVmu1vTI6vpVW0bUXNfFk+x9hr6qt2UygvU2NJYqr4zl0TONdayDYXmhanYVZU69pUwn8qCyn9ph/B6y/8AhqfpZSJ02ReGi/QvrnHejJYPMHsrS6ayrar+hlysLyXVaVn/ANDI8Kf2JcWH3RjgyfN179Ur/oY83X31Ov8AoZng2fYxxq/cjGBk+br76ncfy2V823/1O4/lscGz7Mcer3L+zFBlebb/AOp3H8tjzbf/AFO4/lscGz2scer3L+zFBlebb/6lcfy2PNt/9SuP5bHBs9rHHq9y/sxQZXm2/wDqVx/LY823/wBSuP0McGz2scer3L+zFBlebb/6lcfy2U823/1O4/lscGz2scer3L+zGBk+br/6nX/lsebr76pX/QxwbPsOPX7l/ZjAyHYXqWXaVl/0Mt+B3X1at+hmOFP7GeLW+jR4jJ6O3rrroVP0sy7TRNSv6kadC0qc38qSxFfiSjTZJ4SZGd9cFmUkTXye05LTbib6pVML8CZmr0HS1o+lUrXKlJLMpLtfabQu2jqdVEYMoWstV18pro2AAbJrAAAAAAAAAAAAAo0VABY4qS5pFvQ0/wDlx/JHqDG6n1RnLPNUofRX5F3BFdUV+RcBuoZZbwR+ivyHDH6KLgMIxkt4Y/RRXhXcioGEMlvCu5DhXci4DCBbwruQwu5FwGAW8K7kOFdyLgMAt4V3IcMfoouAwgW8MfoocEfor8i4DCGWWcEfor8h0UPor8i8DdRnLPJ0af8Ay4/kXKCSwkki8GN1IZZRdZUAkYAAAAAAAAAKZGTQ7k3D5go0Z9A6vSSceTxg0P8A6iP/AOtqfmalutpqk4TfM3KtBfdDfhHkTzIyQij5RrVy4bizq03nnjnglOm6rZ6rb9NaVo1I9uHzT9hOrVVWvEGQu0d9KzOOEZ4KIqbBrAAAFGwnk0m49e8x0befQdL0tRQxnGMm4py44RnjrSZCNkXJxXVE5VyjFTa5M9ChUo+smQGRk0m49dehWdOuqLq8c1DGcG3oVHWoU6jWOKKeDzVkXJwXVE3XJQU30Z6lG8FSjPQgMjJpdx655isI3Ko9LxTUMZweug6t560yF50Tp8Ta4Wzx48OJws8z1dFnC42P09DbApkonk9jyLhkoa7WNU810adTonU45cOE+oA2QNRpGtx1SrVp9E6cqaTw31o24AAKPqAGSpGa27Y061WEbZyjCbinxdeHgkdKp0lGE8Y4kngGMl4PKvWp0KUqtWahCKy2yOV92OVVwsrWVRfSfW/wAySgETjuq6pNfCLLEW+vnEkGn6jb6jQ6ShPq+VF9cfaBlGYAAZAAAIJ5R/RLLxGSnTrO2enW8nQp5dNP5K7iL+Uj0Sy8Rku031bbeHH3HNqinq55Xojp3NrRVY+7PG80TTr2jKnWtKTUu1RwyAUqFbaO76dKnUbtq7Sw38qL5c/YdPZznd9SN3u+xt6TTnDhT+xt5RHX1wgo2R5STRPZlk5ylVJ5i08nRovMU12lclkPi00n2IjWrb3sNPuJW9KM7itHk4wXLJvWXwqinN4OdVRZdLdrWSUZGSDvygSp8Lr6TcQg+uTJLpGuWetWzrWlTOOUovk4sjXqqrJbsXzPW7R3Ux3px5Ee8oXodh/+iPvJhQ9Hp/dXuIf5QX/crBdvwmPvNpqu57PQ7ejTqt1bmUFw0oc2zwjZGu6yUny5GxKudunqhBZfMkGSnaQqn5QaUasVd6dcW9OX+ZrP9CXWt3RvbeNe3qKdOSypJ9ZsVaiu3lBmpdpbafqLBFvKH6ot/GRKbL0Kh9xe4i3lC56PQ7+mRsL/AHJZaHp9uq8nKtKmuGlHm3yNaNka9RZKXTCNt1zt0tcILLyyQphkIh5QoQnH4VptxRpS/wA75ktsb6hqFtC4tqkZ05dTTNirU1WvEGat2lupWZxwjx1XSLXWLeNC7i5QUuJYeOZ6adptvpdnG1tYuNKLbSzk89X1Wjo+nzvLhTdOHWorLPayvad9ZUrqlno6kVJZXMliviZ/cRzbwkue7n/WTw1u/lpekXF5Cnxypxyo5MLal/calo0Lq6nxVJyfUuS59Rodw7tsL7Tr3ToQrqq8wy4NLKfeY23N22Gj6NTtLinWdWLeXCDaNGWsgtTje5YOhHQWPSN7n6s//DopHt2vFpbeKjJ0TcNrrqqu2hViqTw+ki0Yu7vQ7bxkdKE4zWYvkcq2uVb3ZrDMC1itJ3NRgm1SqwSXPvX/AHJkiJ7kt5RtbK9gudPhi/2JJZXCurOlWTzxxTJEEZBhardK002vW5ZUXjn2mZ2EZ3dXbo29nDnKrPLX2AyzQztVT0OldS+XVqtR9hPrX0Sl9xe4jO4qCtdHsKKWOCS9xJKMuCwhP6NNP+gIrkRjXbirqmrU9LoP4sZJS7s979hI7DTbewoxhShHiS5yxzZHdsQ+Eatd3cllrOPxZLwZS9TxrW9K4pOnVpxnBrqaIfUpz25rsJRbdvP+se78CbEd3dbqpp9OsvlU5Y/MBkhhJSgpJ5TWUyprtDr9Po9vN83w8P5GxBIAAAgvlHX90su7pH7j3s996Tb2lKlNVk4QUW+H7Dw8o3odl4j9xuLHbWj1bGhOdjTcpQTba+w47Vz1c+C0unU7alp1oq+Mm+b6Gmvt+O5/u+kWs6lapyhKawi7bO1rqN/521Z5uW24wznm+1/ae+sbItJW86+m8VvcwTlHhfJvuLdka7c3sa1hfTc69D5MpdbXVzIxjN6hLU8/t9jM5VrTSlo+S/dnqSXVlcy0q4jZxUriUGoLOOZG9o7XqWHS3WpUYu5lLEU3nC7yYdnMxbvUrPT4cV1cU6S/1PB0baa3NWzfQ5tN9ka5U1r5v7PSraUK9KVOpShKElhpogej20tD37WsaTaoVYNqOezrN5V35olOo4dNOf8AqhFtGgsdToavv+jd2/F0bp8K4ljqNLU3UynBwazk3tJTfCFisTUXF9TZeUSTjp9lNcnGumvwG0tG+G8Wt6j/AGtxWf8AZqS5RiinlFXFp1nH6VZL8yV6ZRVvpltSSxw00v6GVUrNZJy6LBiVzr0EFHq2/wCjy1PSbXUrKdvXpRaa5PHNPvRC9mXVTS9dutFrSzDifBl9Ul/4Ohs5zqHDbeUqhOmliTi3jvaaJ6yKrnC2PJ5wQ0DdtdlEuaxleUbfyg+pqD7VWTMbaeledq0tc1GKqTliFGMlyil24PfyiepqK76qJDodCNtotpSj2U17iCq4mtk5dEkTdzr0EVHq2+f8HpfaZa6haTtq9KMqcljGOogu1a1XQ903GjVJZpVJPh9q6n+KOjHPNwRVDygWFSKw5cMnj8ietgoOFseTTIbPm7IzolzTTf8AtG/3181rn2oz9tr/AIdsfCXuMDfPzWuPajP2183bHwkTj3j8HlLsV/k/+jE3ZbUYbbvZqlBS4c5UeZi7It6NTbdBzpQk8tZlFN9Zn7v+a979z9zF2L82qH3n7yEor86lj0PSMn+QfP8Ad/4SKnb06WejhGGevhWMmh3cv7nb+KiRkc3f6HbeKjopJHLk89TYaha/DNDnR7XSTXtSyYO0rp1dOnQl8qjPH4M3dHnbU8/QXuIvprembrr2r5QrZx70ZMMlpE2vOm8MZzSt/wBv/JJby4VtZ1q7fKEWzQ7St26VxeTXxqssIB83grvBf3S28Q21RtaLJrr6H9jU7w9EtvENvKLlo7iut0f2A9TSbOS6O6l28SJSRXZ0sK6h25TJUDK6A1G5UnotXK6mmjbmn3NPh0apyzmSQDLdrvOi0/skzdGm2xHh0Sl3uTf9TcgLoAADJBfKP6JZeIyXab6stvDj7iI+Udr4JZeIyX6Z6stvDj7jn093Z/o6V/ZVeWZLSwc4s09L8pM6XHw06zbf256kdIZzvey+A7l06/S5Npe1pjaCxGNi9GjOzHvTlU/3JommtagtM0m4u8cUqcfirvfYQbbugT3NVqapq1SdWnxYjHPKT/7Es3LRnfbXuVRXFKUFJJfmR3Ze5bK002NheVFSlBvgk+pr/ueWolGWpjG1/pxn+Gz10qnHSTnSv15x/OCV0dB0ugkqdlRSX+nJEqaoR8pcadvGMYQhhqKwk8Gy1re9jbUJUrGbuLlrEVFckyN7coXNDeVB3qxXqxdSWevmjy1NtTnCFS9T00tNyrssub+V4TN75RW4adZ1Mco10yWafWVewt6i/wA1NP8AoardulvVdCq0oR4qsP7SC72jTbN3NQ+BR06+qKlXo5jF1OWV3e02d5Vap73JSSNbhu7RLc5uLefDJuznF843flLowpv5LSljvSyyV61uWw0m1lJ14VKrXxacZJtv9iObI0+vd6hX1y6g10jfR8S62+tojqpq6yFUOfPLJ6KDoqsvnyWML+WzP8oafmOlNLlGqiRaPVjW0i0qR6pUov8AoY+49M866JXt4rNTh4oL7URjZm5KNvbear6fQ1KT4YOpy/BmXJU6rMuSkiCg79FiHNxfT+GT053r1SNz5QbKlB5cHGMsdj6yWaruPT9MtpVZ14Snj4tOMsuRFNm2Nxqut19cuotQy1DK5Nvu9hjV2K2cKoc+fMloa3TCeomsJLC/ls32+fmtce1Gw2183bHwkYG+n/wvce1e8z9tP/h6x8JHpHvH4PGXYr/J/wDR47v+a979z9zF2L82aP3n7zYbjtZ3mg3lGn8qUOS9hHti61aR0mNhVqRp16bfynjiIzko6xSk8cj0ri56CSistS/8JuR3d3oVt4qN3QvLe5lONGtCo4PElGWcGk3d6HbeKjoJp80cySa5M31D0en91Ea3RTdre2moQXyZYl+BJaHo9P7qMDX7VXWj14YzKK4l+Bki+hgblvs6PSp038a5x1d3WbbSrZWmmW9FdkVn2shthKrqd/YW9R5hR6sdiXPmT4BcyN7w9EtvEN9bpSs6S7HBL+hod4eiW3iG+tfRKP3EDPqRXQpKw3DcWk3jjbSz29pMERrcel1XVjqNon0sMcaj18u1F1huu2nRjG8UqdRLEpYymwYXIkZGN33X9lRtYvMpPiaX9DLr7psIU26LlVn2RSx+ZorGdPUNWle6hcQhGD4uFvGe5IBsl2l2/wAG02hSaw1BZ9plmup65p9W5p29OupVJvEVFZMm5hLCmqk480sJgyjIGTB6SrQvJQlPio8HXLr4vae9pKtK2i63+I85BkxdU0ay1eMI3tLpIweYrOMGdRpRo0o0oLEYrCX2F4IKEd7eXUk5ycVFvkg0a3VNEsNYjTV5R6To3mPNrDNmUZmUVJYYjOUHvReGeVKjCjQjRiviRXCk+fIjt/sfSb25nX4Z0ZT5yVN4Tffgk4IWUV2LE1lE6r7KnvQlhsj2mbQ0rTKqrQourUT+LKpzx7DPei2MtWWpOivhSjw8eew2QMRorgsRWDM9RdOW9KTbKGg1XaGlarXdarSlTqvm5U3jJIASsqhYsTWSNVtlT3oPDIrabD0i2rKrUVSu12VJZRJ6dOFOChCKjGPJJLkXvkE8ka6a6/kWDNuottf/ACSyMLuNDqu0tL1ar0tWk4VX1zpvDftN+UJWVwmsSWTFds6nvQeGRS32BpFGrGc+lrY/y1JZTJPRoU6FKNOlBQhFYSSwkehUjVTXX8iwStvtt+pLJhahp1tqdpK1uqfHSl1x6j2tLWlZ21O3ox4aVOPDFdyPZlT03Fne9Tz3pbu7nkUaTWGiM6hsjSb65lXUJ0JyeX0Twm+8k5QhZVCxYmsk6rrKnmt4NPom3bTQo1VbSqS6Vpyc3lmdeafbX9OELinxqD4l7TKKkoQjBbsehGycrJb03llsYqEVGK5JYQlFSi4yWU+TRcCZAwLTSLKyrutb0VCbWG89hngAGJfafbahCMbmnxqDyvaZMIRhBQisRisJFwAGDAudG0+6m51bam5d6WDPABqf4c0v6svzZT+G9L+qr82bcAxhGtoaFp1vXhWpW6jODzF56jYTgprD6i4AyY9a1pV1KNSOU2m/wPdL7CoAP//Z;" vertex="1" parent="gK9rK_hi8yjl6UL4V2o0-31">
          <mxGeometry x="50" y="20" width="40" height="40" as="geometry" />
        </mxCell>
        <mxCell id="gK9rK_hi8yjl6UL4V2o0-20" value="" style="shape=image;aspect=fixed;image=data:image/jpeg,/9j/4AAQSkZJRgABAQAAAQABAAD/2wBDAAgGBgcGBQgHBwcJCQgKDBQNDAsLDBkSEw8UHRofHh0aHBwgJC4nICIsIxwcKDcpLDAxNDQ0Hyc5PTgyPC4zNDL/2wBDAQkJCQwLDBgNDRgyIRwhMjIyMjIyMjIyMjIyMjIyMjIyMjIyMjIyMjIyMjIyMjIyMjIyMjIyMjIyMjIyMjIyMjL/wAARCAIMAscDASIAAhEBAxEB/8QAHwAAAQUBAQEBAQEAAAAAAAAAAAECAwQFBgcICQoL/8QAtRAAAgEDAwIEAwUFBAQAAAF9AQIDAAQRBRIhMUEGE1FhByJxFDKBkaEII0KxwRVS0fAkM2JyggkKFhcYGRolJicoKSo0NTY3ODk6Q0RFRkdISUpTVFVWV1hZWmNkZWZnaGlqc3R1dnd4eXqDhIWGh4iJipKTlJWWl5iZmqKjpKWmp6ipqrKztLW2t7i5usLDxMXGx8jJytLT1NXW19jZ2uHi4+Tl5ufo6erx8vP09fb3+Pn6/8QAHwEAAwEBAQEBAQEBAQAAAAAAAAECAwQFBgcICQoL/8QAtREAAgECBAQDBAcFBAQAAQJ3AAECAxEEBSExBhJBUQdhcRMiMoEIFEKRobHBCSMzUvAVYnLRChYkNOEl8RcYGRomJygpKjU2Nzg5OkNERUZHSElKU1RVVldYWVpjZGVmZ2hpanN0dXZ3eHl6goOEhYaHiImKkpOUlZaXmJmaoqOkpaanqKmqsrO0tba3uLm6wsPExcbHyMnK0tPU1dbX2Nna4uPk5ebn6Onq8vP09fb3+Pn6/9oADAMBAAIRAxEAPwD3+iiigAooooAKKKKACiiigAooooAKKKKACiiigAooooAKKKKACiiigAooooAKKKKACiiigAooooAKKKKACiiigAooooAKKKKACiiigAooooAKKKKACiiigAooooAKKKKACiiigAooooAKKKKACiiigAooooAKKKKACiiigAooooAKKKKACiiigAooooAKKKKACiiigAooooAKKKKACiiigAooooAKKKKACiiigAooooAKKKKACiiigAooooAKKKKACiiigAooooAKKKKACiiigAooooAKKKKACiiigAooooAKKKKACiiigAooooAKKKKACiiigAooooAKKKKACiiigAooooAKKKKACiiigAooooAKKKKACiiigAooooAKKKKACiiigAooooAKKKKACiiigAooooAKKKKACiiigAooooAKKKKACiiigAooooAKKKKACiiigAooooAKKKKACiiigAooooAKKKKACiiigAooooAKKKKACiiigAooooAKKKKACiiigAooooAKKKKACiiigAooooAKKKKACiiigAooooAKKKKACiiigAooooAKKKKACiiigAooooAKKKKACiiigAooooAKKKKACiiigAooooAKKKKACiiigAooooAKKKKACiiigAooooAKKKKACiiigAooooAKKKKACiiigAooooAKKKKACiiigAooooAKKKKACiiigAooooAKKKKACiiigAooooAKKKKACiiigAooooAKKKKACiiigAooooAKKKKACiiigAooooAKKKKACiiigAooooAKKKKACiiigAooooAKKKKACiiigAooooAKKKKAEooJx1NZV3rUUJKQjzHHp0H41zYnF0cNHnqysi4U5Tdoo1c+tV5b62h/1kqL+NczPf3NxnfKQv8AdTgVXxXzWI4oSdqMPm/8v+CdsMA/ts6Rtcs1OAzN/urTP7ets/ck/wC+a57ik4rzZcR4xvSy+X/BNlgqfmdIuuWbdWZfqtWY7+1l4SZCfTNclgUYHpWtLibExfvxT+9ClgYPZs7cGg1yEF7c25/dytj+63IrXtNcjfCXC+W397+H/wCtXu4PiDDYh8s/dfnt95yVMJUhqtTZopoYMAQQQehFOr3U01ocoUUUUwCiiigAooooAKKKKACiiigAooooAKKKKACiiigAooooAKKKKACiiigAooooAKKKKACiiigAooooAKKKKACiiigAooooAKKKKACiiigAooooAKKKKACiiigAooooAKKKKACiiigAooooAKKKKACiiigAooooAKKKKACiiigAooooAKKKKACiiigBKKilljhQvI6oo5JJxiubvvHmkWjFIWe6cdoRkfnTSb2NaVCrVdqcWzqaK4J/iR83y6W+P9qUZ/lU8HxGtGIFxYzxDuwIYCnys6nlmKSvyfiv8ztvwo7Vmabrunasm6zuUcjqmcMPqOtadI4ZQlB2krMCcCopp44IzJIwVR1Jp0kixRl2ICgZJNctf3z3sueREv3F/qa8nNMzhgqd95PZfq/I2oUHVl5El9qct2Sq5SL+73b61QBpaOlfnuIxVXETc6ju2exCEYLligooornNAooooAKKKKACiiigC3ZahLZsAMvH3Q9vpXS29xHdRCSNtymuONWLO7ks5vMTlT99fUf419BlOczw0lSqu8Py9PI4sRhVNc0dzr6O1QwTpcRLJG2VYZFTV95CanFSi7pnlNNOzFoooqxBRRRQAUUUUAFFFFABRRRQAUUUUAFFFFABRRRQAUUUUAFFFFABRRRQAUUUUAFFFFABRRRQAUUUUAFFFFABRRRQAUUUUAFFFFABRRRQAUUUUAFFFFABRRRQAUUUUAFFFFABRRRQAUUUUAFFFFABRRRQAUUUUAFFFFABRRRQAUUUUAJWbrGr22jae11cngcKg+857Ae9aDMqgknjFeReJNYbWtYeRWP2aEmOFe3u341UY3Z3Zfg/rVWz+Fb/AORBrGt32uTF7qTZCD8kCH5V+v8AeNZ44GBwKKK2PsKdONOKjBWSCiiig0ELtE3nxO0cqcrIhwwP1r2bRJLiXRLOS6ffO0Ks7YxkkV42kRuJooF6yyKg/E17hDGIoUQdAoH5VnUPns9atCPXUyNemIEcIOA2Sw9fSsWr+syb9QYZ4RQP61QHSvy/Oazq42b7O33aGOFjy0kFFFFeYdAUUUUAFFFFABRRRQAUUUUAFFFFAF/Sr02twInP7tzj6H1rps81xXXmun0q7+02YLffThq+x4bx7knhpvbVfqjzMbSt76+ZoUUUV9ceeFFFFABRRRQAUUUUAFFFFABRRRQAUUUUAFFFFABRRRQAUUUUAFFFFABRRRQAUUUUAFFFFABRRRQAUUUUAFFFFABRRRQAUUUUAFFFFABRRRQAUUUUAFFFFABRRRQAUUUUAFFFFABRRRQAUUUUAFFFFABRRRQAUUUUAFFFFABRRRQBheLb02Hhy7lRtsjLsQ+7cV5Io2qB6CvS/iCT/wAI8oHQzpn9a81rWGx9TksEqDl3YUUUVZ7IUUUUAavhq2+1+JrCMjKo5lP/AAEV7Ae9ea/D638zWrq4I4hhCj6sf8BXotzJ5VtJJ/dUmufETUIuT2SPlc4nz4lQXRL8dTk7l/Mu5X9XOKjFA6UV+R1Zuc3N7vU6YqysFFFFQUFFFFABRRRQAUUUUAFFFFABRRRQAVpaHP5d40ZPyuv6is2pLaTy7uJ/7riuzL67o4mE10a+7qZVoc8HE7OigdBRX6mjwQooooAKKKKACiiigAooooAKKKKACiiigAooooAKKKKACiiigAooooAKKKKACiiigAooooAKKKKACiiigAooooAKKKKACiiigAooooAKKKKACiiigAooooAKKKKACiiigAooooAKKKKACiiigAooooAKKKKACiiigAooooAKKKKAOd8Z2rXfhe6CAlogJAAMn5Tz+ma8oWRH+6wJ9M817uRkYPSsy88P6Vfg/aLGFye+zB/MVcZWPWy/M1hoOnON1e547RXo118PdNl5tZp7c+gbcv5GsO6+H+qRc21xBOPRgUP+FWpI9unmuFqfat6/1Y5Wir91oerWWTPp0wUfxIN4/MVnF1UkN8pHUMMVR3QqQmrwd/Q9E+HVvs067uCOZZtoPsoxXR6zJ5enSDPLkLVPwha/ZfDFkpHzOnmH6tz/AFp3iCT5IY/Ulj+FeNnNb2WDqS8rffofI1Ze1xrfn+RiUUUV+YnpBRRRQAUUUUAFFFFABRRRQAUUUUAFFFFABRnGD70Uh6U47oTO0jO6NT6gGn0yEYiQf7Ip9frVP4Fc+ee4tFFFaCCiiigAooooAKKKKACiiigAooooAKKKKACiiigAooooAKKKKACiiigAooooAKKKKACiiigAooooAKKKKACiiigAooooAKKKKACiiigAooooAKKKKACiiigAooooAKKKKACiiigAooooAKKKKACiiigAooooAKKKjkkSKNpJGCooyWJwAKAHFsDJOAOtcdrXj20sna305BdTLwXziNT9e/4VznibxbNq8j2tm7RWAOCRw0v19F9q5kAAYHAr18Nlya5qv3f5nzmOzd3cKH3/AOR0H/Ca699oMn2uMA/8s/KG0f1/WtW0+I1ymBeWMcg/vQvg/ka4qiu6WDoSVnFHlQzDEwd1N/PX8z1O18eaNcYEjy27HtKnH5jNbltqdleqDbXcMuf7rgmvEKQDa25SVb1U4Ncs8spv4W1+J30s8qx+OKf4HvY596p3elWF8pW6tIZQeu9ATXkdr4i1mywIdRl2jokh3j9a3LT4h6lFgXNrDOO5QlT/AIVyTy6tH4WmelRzyje7vF/12PR440hjSKNQqKAFA7CsDW5N2obeyKB+dauj6pDrOmQ3sIKq45U9VPcGqeu2vyrcqOV+V/p2r5XiGhUng5JfZd36I97BVYyqKV7p7fMxaKKK/Oj3AooooAKKKKACiiigAooooAKKKKACiiigAJxT4Y2lnjRQSWYcCiGF7iQRxruc/kPc10lhp8dnHn70h+8x/p7V6+V5XVxk+baC3f6I5q9eNNW6l8cKBS1DJPDEyLJKiM5wgZgCx9B61NX6QlZHi3CiiigAooooAKKKKACiiigAooooAKKKKACiiigAooooAKKKKACiiigAooooAKKKKACiiigAooooAKKKKACiiigAooooAKKKKACiiigAooooAKKKKACiiigAooooAKKKKACiiigAooooAKKKKACiiigAooooAKKKKAGjHFeeePdfMk39j2zkRrhrlgep7J/U/hXb6pfJpum3F2/KwoWx6nsK8TklknleeZt0srF3Pua9LLaCnJzl0/M8TOcU6dNUo7y39BtFFFe4fLBRRRQAUUUUAFFFFAHYeANVNtqEumSNiO4/eRZ7OOo/Efyr0aWFZ4WjblWGDXhkM8trcRXMJxLC4dD7ivbNMvo9T063vIj8kqBvoe4rwc0wyvzW0loz6nJMVzU3Sb1jt6HLyxNDM8b/AHkODTa2NettrpcqOD8r/wBKx6/HcxwrwuJlSey29Oh9xQqe0gpBRRRXEbBRRRQAUUUUAFFFFABRRRQAhNWLW0lvJNsYwB95z0FPsbCS9k4ysQPzP/QV08FvHbxiONQqivoMpyWeKaq1dIfn6HHiMUoe7HchtLOKzjCoOT95j1JrK8UeKrHwxY+bcHzLiTIhgU/NIf6D3qn4v8a2nhm38lNs+oyLmOAH7v8AtN6D+deI3+oXeqX8t7eztNcSH5mPYegHYe1fo+CwMVFJK0Vsj5jHY/2bcY6y/Isa1rd/4g1E3uoTFnH+rjQkLEPRf8e9b3hz4h6rojpDdu9/ZDgpIf3iD/Zbv9DXIUV60qMJR5WtDwY4mrCfOpan0lpGs2OuWCXthOJYm4PYqfQjsa0O3tXzn4c8RXfhrU1vLUlo2wJ4M8Sr/j6Gvf8AStTttX06G+tJN8My7lPceoPuK8mvQdJ6bH0ODxaxEddJIv0UUVznaFFFFABRRRQAUUUUAFFFFABRRRQAUUUUAFFFFABRRRQAUUUUAFFFFABRRRQAUUUUAFFFFABRRRQAUUUUAFFFFABRRRQAUUUUAFFFFABRRRQAUUUUAFFFFABRRRQAUUUUAFFFFABRRRQAUUUUAFFFFAHHfEO5MWhR24P+vmVT9Byf5V5pXe/Ekny9OHbe5/SuCr6HL42orzufHZvJyxTXawUUUV2nmBRRRQAUUUUAFFFSQwy3M6QQRtJLIcKi9TQ5W3BRbdkMVWeRY41Z5HO1UUZLH0Fer+D9IvNH0fybyQFncyLGOkee2e9Q+GPCcOjRi5uds1845fsg9F/xrdv7+3020e5upBHGg5J7+w9TXhY3F+2fs4bH1GW4D6svb1XZ2+5eZZeNZEKOoKnqDWTdaHG2Xt2Mbf3TyK5dPiBcC+ZpLIG0J+RQ2JFHqex+ldTpfiHTtWwLacCXvFIdrj8K8bF5bSxEbVoX8+q+Z6mGzSlKVqc9e3cx7i0ntj+9jIH94cioK7UqGGCAQazrrRrebLR5if1Xp+VfJ4zhmcfew8r+T3+89qnjk9Jo5ziirVzplzbZLJvT+8nNVa+arYerQly1ItPzO6E4yV4u4UUUViWFFFFACHjoK0NP0x7wiSXKQ/q309qm07SjJtmuVwnVYz39zW+AFGBgAV9Vk+RObVbELTou/r5HnYnF8vuw37jY40ijCIoCgcAVwnjT4gRaKX07SmSbUcYdzykH19W9vzrM8bfEQoZdK0KX5xlZ7tei+qp6n37V5d68kknJJOST6mv0PC4NJJyWnRHy2OzDlvCm9erJJ55ri4kuJ5Xmnkbc8jnLMfeo6KK9Q8Fu+rCiiimAV3fwx8RHTtZOkTt/o14cxZPCS4/9mA/MCuEpySyW8iTxNtliYSIR2YHIrKrTVSLizbD1XSqKS6H1DS1R0m+TU9JtL1PuzxLIPxFXa8Jqzsz61NNXQtFFFIoKKKKACiiigAooooAKKKKACiiigAooooAKKKKACiiigAooooAKKKKACiiigAooooAKKKKACiiigAooooAKKKKACiiigAooooAKKKKACiiigAooooAKKKKACiiigAooooAKKKKACiiigAooooA4j4kQl9LtJwP9XPgn2YYrzqvZPEunf2roF1bKMyFN0f8AvDkV40DkA4we49K93LZ81Ll7M+Tzqk41+fpJfkLRRRXonjhRRRQAUUVc0vS7zWL1bW0TLdXkb7sY9T/hUzmoK72KhCU5KMVdsis7O51G7S0s4jJO/QdlHqT2Feq+HfDNvoNvu4lu3H7yUj9B6Cp9D8P2uh2nlQDdK3MkrD5nP+HtRrev2uiW26U75W4jiU/M5/oPevCxWLlWfJDb8z6fBYGnhIe1rP3vy/4JY1XVrTSLNri7favRVH3mPoBXl2sazd63d+dcnZGp/dQg8IP6n3qLUdRutWvTdXb7n6Ig+7GPQf41UqadJQ1e55ePzGWIfLHSH5+oUY5BGQR0I4IoorU8zY39L8X6ppxVZXF3CP4ZD8wHs3+Ndlpfi7S9TKx+b9nnP/LKXj8j0NeXUhUMMEAj3rKVKMj0MNmlehpfmXZ/5nuGAR2qjc6Vb3OSV2v/AHl4rzLTfEWqaSQsFwZYR/yxm+ZfwPUV2Wl+ONPvNsd5mzmPHz8oT7N/jXDicDCrHlqRUkfQYTOKM3vyy8/8x9zpNzb5ZV81fUdfyqgc5IPBHUGuzjdZUDo6up5BByDUNzYW90P3iDP94cGvlMZw1F3lh5W8nt959DSx7+0jku+ByT0Arc03ScYnuV+bqqHt9ferNnpUNpIZMl2/hLDpVi+vrXTbOS7vJkht4xud3OAK0yrIPZSVTEK8ui3FicZdWjt3JpJY4ImkkdURRksxwAPUmvH/ABt8Qn1RpNN0aRo7PlZbgcNL7L6L796zPGHja58SzNb22+30tT8sfRpv9p/b0FcnX3eGwnL709z5TG5jz3p09u4AADAGBRRRXoHjhRRRQAUUUUAFFFFAHunwzuDP4HsgxyYmeP8AJjXXVxXwsQp4JiY/xzyMPz/+tXbV4Ff+JL1PrsK70Y37IWiiiszcKKKKACiiigAooooAKKKKACiiigAooooAKKKKACiiigAooooAKKKKACiiigAooooAKKKKACiiigAooooAKKKKACiiigAooooAKKKKACiiigAooooAKKKKACiiigAooooAKKKKACiiigAooooAbjNeTeMNFOlau08a4trpi4I6K/8AEP6161VDVdMt9WsJLS5GUccEdQexHvXRhMR7Cpfo9zhx+DWJpcq3Wx4nRV7V9Iu9EvTbXa5B/wBVKB8sg9vf2qjX0sJqa5o7Hxc4ShJxkrNBRRWz4e8OXOv3HBaOzQ4kmx1/2V9T79qVSpGEeaTsh0qU6s1CCu2Q6Jod1rt35NuNkKH97ORwg9B6n2r1fSdJtdHs1trVML1Zj1Y+pNS2Gn22mWkdtaxrHEgwAO/ufU1ieJfFUWkIba1Cy3zDhf4Yx6t/hXz+IxM8RLlW39bn1WHwtHAUvaVX73f9EWfEPiO30SDYuJbtx+7iz0929BXmV1c3F9dPdXMplmfqx7D0A7CmSSSzzPNNI0s0hy7t1JplVTpqCPCxuOnipa6RWy/rqFFFFaHAFFFFABRRRQAUdeKKKALmn6rf6S+6yuXjXvGfmQ/h/hXY6X48t5isWpxfZ3Jx5qcofr3FcFSEAgg9DUSpxludmHx9eh8L07PY9wDZ5HIrxn4qSan/AMJBHBcyk6eUD2yLwuf4s+rf0r0DwXq/9oaT9lmbNxakI2erL/Cf6fhTPHvh86/4dlEK5u7c+dB7kdV/EVhRkqdX3j6eq/rWF56b31/4B4PRSA7gD69qWvbPmgooooAKKKKACiiigApGO1SfQZpa2PC+jPr3iS0sQpMW7zJz6Rryfz4H41M5KKbZdODnJRW7PbPBunnTfCOm2zLtcQh2Hu3J/nW/TVUKoUDAAxinV8/KXM2z6+EeSKiugtFFFIsKKKKACiiigAooooAKKKKACiiigAooooAKKKKACiiigAooooAKKKKACiiigAooooAKKKKACiiigAooooAKKKKACiiigAooooAKKKKACiiigAooooAKKKKACiiigAooooAKKKKACiiigAooooAKKKKAKGo6baaraNbXcSyRt2PUH1B7GvOtZ8D3+ns0ljm8t+oX/loo+nevU+3FHauihiqlH4duxx4rAUcSvfWvfqeUeHfCNzq83m3iSW9khwwYbXkI7D0HvXqFvbQ2dukEEapEg2qqjAAqYkAZ6VwnifxcxaSw0yTkfLLOp6f7K+/vVVa1TEy12OaNPD5bS5nq397LXibxatm72OnMr3PSSXqsX+LfyrgSWZmd2ZnY5ZmOSx9SaaAAMClrWEFFWR83i8XUxM+ae3RdgoooqzlCiiigAooooAKKKKACiiigAooooAv6JqjaPq0N5k+VnZMPVD1/Lr+FevRukiq6nIIyPcV4lXofgXVvtentp8rZltuFz1MZ6fl0rnrwuuZHu5NiuWboS2eq9TzT4gaB/YXiWSSJNtpe5mix0Vv41/Pn8a5WvorxD4csfEunraXocKjh0dDhkb2rgr34QyrltP1UN6JcR/1H+FdVDFw5EpvU3xeX1PaOVNXTPMqK6e/+H/iWwyTp/wBoQfxW7hv0ODXOXNvcWb7Lq3mgb0ljK/zrrjUjL4Xc82dGpD4k0R0UAgjIII9qK0Mwoop0cbzSpDFG8krnCRoMsx9AKASuNClsKqlmY4VQMkn0Fe5eAPCx8PaSZrpQdQugGl/6Zr2T8O/vWX4F8Af2Y0eq6sitfYzFD1EPufVv5V6LXlYvEqfuQ2PfwGCdP95U36eQtFFFcJ6wUUUUAFFFFABRRRQAUUUUAFFFFABRRRQAUUUUAFFFFABRRRQAUUUUAFFFFABRRRQAUUUUAFFFFABRRRQAUUUUAFFFFABRRRQAUUUUAFFFFABRRRQAUUUUAFFFFABRRRQAUUUUAFFFFABRRRQAUUUUAFFFFABRRRQBma/N9n0G+mBwVibB+orx5BiNQPSvWPFpx4Wvsf3AP1FeUjoK68P8LPl89f72K8v1CiiitzxAooooAKKKKACiiigAooooAKKKKACiiigArsvh5b7rq+uiPuqsSn9TXG16P4Ct/K8P+d3nlZ/w6D+VZVnaB6eU0+fExfa7/Q6K9vIbC1e4mJEaDkgZNVbbXNNuseVdx5P8JOD+tZ3jCfZpccQPMsgH4DmuLKhuoB+or5zFY+dCtyRSasfVTqOLsj1VWVhkEEetRzW0FwhSaFJEPUOoIrzOG4uLY5guJov91zj8q07fxNqkHDSxzD0kXn8xRTzem/ii1+Ie0T3RsX/gDw3qGWk0yOJz/HATGf0rmb74QWzZOn6rPEeyzqHH58Guht/GS8C5tGX1aNs/oa1bfxHpdyQBciNj/DJ8v869KjmkH8M/v/4JlPD4epvFfkeaWvwl1V7opd6hbx24P34lLMw9geleg+HvCGk+HI82cG+4Iw1xJ8zt+PYewroe1A6V1VMRUqKzY6ODo0neK1FooorE6gooooAKKKKACiiigAooooAKKKKACiiigAooooAKKKKACiiigAooooAKKKKACiiigAooooAKKKKACiiigAooooAKKKKACiiigAooooAKKKKACiiigAooooAKKKKACiiigAooooAKKKKACiiigAooooAKKKKACiiigAooooAxfE8Zk8NagoGT5RP5c15MvKg+1e13luLmzngPSSNk/MYrxQK0eY24ZCVP1Brqw70aPmc8hapGfdW+7/hxaKKK6DwgooooAKKKKACiiigAooooAKKKKACiiigBGO1GPoM16/4fthZ6DYwYwVhXP1Iya8ltoDdXlvbjrLKqfma9qVQqhR0ArnxD0SPfyOn705+iOP8AGU269tYB/Ahc/jxXOVp+IZvP165OciPbGPwHP86zK+Ixc+evKXn+Wh7M3eTCiiiuckKRhlTS0HofpSA9J0qc3Ol20x6tGM/WrtZnh8FdCswf7n9a06+xotunFvsjsjshaKKK1GFFFFABRRRQAUUUUAFFFFABRRRQAUUUUAFFFFABRRRQAUUUUAFFFFABRRRQAUUUUAFFFFABRRRQAUUUUAFFFFABRRRQAUUUUAFFFFABRRRQAUUUUAFFFFABRRRQAUUUUAFFFFABRRRQAUUUUAFFFFABRRRQAUUUUAFFFFADeMV5N4psTYeI7pAMRz/vk49ev6161XJeOdKN3pi3sKZmtCWIHUofvf41rSlaR5ma4d1qDa3jqed0UZBGRyKK7T48KKKKACiiigAooooAKKKKACiiigAooooA2fClv9p8TWYIyI90h/Af/Xr1ZiFUk9AM1598P7cvqN5ckcRxhAfcnP8ASu11e4+zaTdTA4KocfXpXBi5qN2+iPrMnhyYbm7ts86nl8+5mm/56SM360ykUYRR6Clr4dtt3Z1BRRRQAUqxtNIkSDLyMFUe5pK6HwtphnuP7QlX91HkRZ/ibu30FbYei6tRRXUcVzOx19vELe2iiXpGgX8hU9FFfWpJKyOwKKKKoAooooAKKKKACiiigAooooAKKKKACiiigAooooAKKKKACiiigAooooAKKKKACiiigAooooAKKKKACiiigAooooAKKKKACiiigAooooAKKKKACiiigAooooAKKKKACiiigAooooAKKKKACiiigAooooAKKKKACiiigAooooAKayhlKsAQRgg96dRQB5J4j0RtE1Moin7JMS0Lenqv4fyrIr2LVdMt9WsHtLlcq3KsOqt2I968o1PTLnSL1rW6XnrHIOki+o/wrspVOZWe58jmeAdCfPBe6/w8ipRRRWx5QUUUUAFFFFABRRRQAUUUUAFISACT0FL0GTXUeFPDTahKmoXiFbVDuiRh/rD6n/Z/nUykoq7N8PQnXqKEdzofBWmzWOjtLOmyS4fzAD1C44z/AD/GtPXrKe/0qSC2K+Y2OGOMgHpWqBgUV51ZKqnGXU+2o0I0qaprZHlksckEhjmjaNx1Vxg0yvTrmytrtNlxCki/7QzWRL4S01ySoljz2V+P1rwKmVVU/caa+4l0X0OIozyB1J6Ada7VPCGng/NJO/sX/wDrVp2mkWFlzBbIrf3sZP5mphlVVv3mkCpS6nKaT4ZnvGEt6rQ2/Xyzw0n19BXaxRpFEI0UKijAAGABUlFexh8LChG0d+5tGCjsLRRRXUUFFFFABRRRQAUUUUAFFFFABRRRQAUUUUAFFFFABRRRQAUUUUAFFFFABRRRQAUUUUAFFFFABRRRQAUUUUAFFFFABRRRQAUUUUAFFFFABRRRQAUUUUAFFFFABRRRQAUUUUAFFFFABRRRQAUUUUAFFFFABRRRQAUUUUAFFFFABRRRQAUUUUAJ3rO1TSbXWLRre6TI6qw4ZT6g9q0e1FNO2qInCM4uMldM8j1rw/e6HIWlUzWuflnQcD2Ydj+lZXUZHSvbmRZEKuAynggjIrlNV8C2VyWlsHNpKedoGUJ+nb8K6YV1tI+dxeTST5qGq7f5HnlFal/4b1fTiTLZtLGP+WkHzj8uorKLANtPDeh4Nbpp7Hi1KU6btNWfmLRRmimZhRSEgdTUkEM104S2hkmY9BGpNBSi27IZQMl1RQWdjhVUZJ+grpdO8EaneFXumW0iPUH5nP4dBXaaV4b07SEzBDumI+aWTlz+Pb8KylWjHzPRw2VVq2slyrz/AMjmPD/gt5WW71ZMIDlLb193/wAK71VVUCqAAOw7UpAwKOcVyzm5O7PpsLhKeHhywXz6sdRRRUHUFFFFABRRRQAUUUUAFFFFABRRRQAUUUUAFFFFABRRRQAUUUUAFFFFABRRRQAUUUUAFFFFABRRRQAUUUUAFFFFABRRRQAUUUUAFFFFABRRRQAUUUUAFFFFABRRRQAUUUUAFFFFABRRRQAUUUUAFFFFABRRRQAUUUUAFFFFABRRRQAUUUUAFFFFABRRRQAUUUUAFFFFABRRRQAUUUUAJ1FU7nTbK8/4+LWKTP8AfQGrlJ+NO9iZQjJWkrmG/hDQpOTp6Kf9liP5GmDwXoYOfsjH2Mjf410GKPxp88u5g8JQf2F9xjQeGdGt23R6dBn1Ybv51qRQRQLtjjRF9FUAVLRSbb3NIUqcPhil6IWiiikahRRRQAUUUUAFFFFABRRRQAUUUUAFFFFABRRRQAUUUUAFFFFABRRRQAUUUUAFFFFABRRRQAUUUUAFFFFABRRRQAUUUUAFFFFABRRRQAUUUUAFFFFABRRRQAUUUUAFFFFABRRRQAUUUUAFFFFABRRRQAUUUUAFFFFABRRRQAUUUUAFFFFABRRRQAUUUUAFFFFABRRRQAUUUUAFFFFABRRRQAUUUUAFFFFABRRRQAUUUUAFFFFABRRRQAUUUUAFFFFABRRRQAUUUUAFFFFABRRRQAUUUUAFFFFABRRRQAUUUUAFFFFABRRRQAUUUUAFFFFABRRRQAUUUUAFFFFABRRRQAUUUUAFFFFABRRRQAUUUUAFFFFABRRRQAUUUUAFFFFABRRRQAUUUUAFFFFABRRRQAUUUUAFFFFABRRRQAUUUUAFFFFABRRRQAUUUUAFFZmra9pOhRRS6tqFtZRytsRp5AoY4zgZqlYeNPDOqX0VlY65YXF1LkRxRThmbAycD6UAdBRRRQAUUUUAFFFFABRRRQAUUUUAFFFFABRRRQAUUUUAFFFFABRRRQAUUUUAFFFFABRRRQAUUUUAFFFFABRRRQAUUUUAFFFFABRRRQAUUUUAFFFFABRRRQAUUUUAFFFFABRRRQAUUUUAFFFFABRRRQAUUUUAFFFFABRRRQAUUUUAFFFFABRRRQAUUUUAFFFFABRRRQAUUUUAFFFFABRRRQAUUUUAFFFFABRRRQAUUUUAeI/tJ/8AIs6L/wBfjf8AoBryv4MD/i6+i/70n/otq9V/aT/5FnRf+vxv/QDXlXwY/wCSr6L/AL0n/otqAPsKiiigAooooAKKKKACiiigAooooAKKKKACiiigAooooArXt7a6dZyXd7cR29tEN0ksrBVUepJrGHjvwkzKq+JNLJYgAC6Tknp3rN+LAz8LfEGf+fb/ANmWvj/TP+QrZ/8AXdP/AEIUAfelFNT7g+lOoAKKKKAPjfxB458V23iTVIIfEeppHHdyqqi5YAAOcDrX0X8H9QvdU+G2n3moXU11cu8u6WZyzHDkDk1weqfs7zajql5er4jRDcTvLtNqTtDEnH3vevU/Anhd/B3hK10SS7W6aBnPmqmwHcxPTJ9aAOmooooAKKKKACiiigAooooAKKKKACiiigAooooAKKKKACiiigAooooAKKKKACiiigAooooAKKKKACiiigAooooAKKKKACiiigAooooAKKKKACiiigAooooAKKKKACiiigAooooAKKKKACiiigAooooAKKK5zxd4y0jwVpBvtVnwTkQwKcyTN6KP5noKAOjor5W8SfHnxTq8rppTR6Ta5+URKHkI93I6/QCuKn8c+K7ly0viPVGY+l04/kaAPt6iviyw+JnjPTXDW/iO/ODnbLJ5in8GzXqngv8AaDd7iOz8WW8ao5Ci+t1xt93T09x+VAHv9FQwTxXMEc8EiyRSKHR1OQwPIIPpU1AHiX7Sf/Is6L/1+N/6Aa8q+DH/ACVfRf8Aek/9FtXqv7Sf/Is6L/1+N/6Aa8q+DH/JV9F/3pP/AEW1AH2FRRXkfx91TUNJ8KabNp19cWkrXu1mglKFhsbg460AeuUV8Pf8Jt4q/wChi1T/AMC3/wAaP+E28Vf9DFqn/gW/+NAH3DRXw+PG/ioHP/CRap/4Fv8A41taV8XPG+kyh012e5QdY7oCVT+fP5GgD7GorzP4a/Fm08bsdPvYVstXRd3lq2UmHcpnnI7j+demUAFFFcZ44+JGi+BbQG9Zri+kXMNnEfnYepP8K+5/DNAHZ0V8n698dvGOrSMLK4i0u3J4S2QFvxZsn8sVysnxA8XTPvfxLqhb2uWH9aAPtqiviuL4k+NYPueJtS/GYn+dXofi/wCPLc8eIZ39pI0b+a0AfY1FeNfBTx74i8Y6hqsGtXiXEdtDG0e2FUIJJB5AGeldT8WvEmp+FPBDanpEyw3QuY49zRhxtOc8HigCz8WP+SW+IP8Ar2/9mFfH2mf8hWz/AOu6f+hCuw1f4u+Mdd0m50zUL+GS1uU2SqLZFJH1A4riYZngmjmjOHjYMp9CDkUAffCfcH0p1fJP/C9vHv8A0E7f/wABI/8ACk/4Xr49/wCgnB/4CR/4UAfW9FeVfBbxprnjSw1abW7mOZraWNYtkSpgEEnoOegr1WgAor5X1v40+OLDXtRtINSgEUFzJGg+yxnChiB2r3b4Ya9qPibwFY6rqsyy3kzSB3VAgIDkDgcdBQB2VFFRSSpDG8kjqkagszMcAAdSTQBLRXg/jX9oGO1uJLHwrbxz7SVN9OCUJ/2F7j3P5V5VqHxV8b6k7GXxFdxhv4ICIgP++QKAPs2iviKPx34tik3p4k1QN6/anP8AWtiy+MPjuybK6/NKPSeNJP5igD7Foryr4N+Pdd8b2+qvrP2ZhaGNY2hj2Elt2c847CvVaACiiigAooooAKKKKACiiigAooooAKKKKACiiigAooooAKKKKACiiigAooooAKKKKACiiigAooooAKKKKACiiigAooooAKKKKACiiigAooooAKKKKACiiigAooooAKKKKAK95dw2FlPd3LhIII2kkY9lAyTXxf468XXnjTxPc6pcswhyUtoSeIoh0A9+59ya+jvjjrDaX8M7uKN9sl9KlsPXaTlv0Uj8a+afBWir4i8aaRpMgzFcXKiQf7A5b9AaAPUfhn8E4tb0+DXPEjTR2kwD29nGdrSL2Zz1APYDnvmvZLX4b+DbOMRw+G9OwBjLwhyfqWya6dI0ijWONQqKAqqBgADtUlAHA658HvBet2zxjSY7CYj5Z7P92yn1x0P4ivmjx34KvvAuvtp103mwuN9tcAYEqf0I6EV9q15B+0Lo8d54Ft9S2/vrG6XDf7D/ACkfnt/KgDD/AGfPGc04ufCl5KXWJDPZFjkqufnQe3OR+Ne918W/DTU20j4jaFdBiqm6WJ/dX+Q/zr7SoA8S/aT/AORZ0X/r8b/0A15V8GP+Sr6L/vSf+i2r1X9pP/kWdF/6/G/9ANeVfBj/AJKvov8AvSf+i2oA+wqytb8PaR4jt47fV7CG9hifzESUZCtjGfyNatFAHI/8Kv8ABH/Qs6f/AN+6P+FX+CP+hZ0//v3XXUUAcgfhf4IIx/wjOn/9+/8A69eX/FD4MabY6Hc674aje3a1XzJ7TcWVkHVlzyCOuPSvf6p6pEs+lXkLgFJIHVge4KkUAfDek6ncaNq1pqdo5S4tpVlRgccg5x9D0r7k0y+j1PSbO/ix5dzCky49GAP9a+D3G12HoSK+0Pho5k+Gnh1mOT9iQfkMUAdHfXkdhp9zezHEVvE0r/RQSf5V8PeItcvPEmvXerXzl57mQvyeFHZR7AYH4V9leOFZ/AmvqgJY2E2Mf7hr4goA90+G3wRtda0m31rxLJKIbhQ8FnE2wlD0Z2689gO3evVofhN4FgjCL4ctWx3csx/MmtvwpeW2oeEtIurNkaB7SPYV6DCgEfgRj8K2qAOIk+EXgOb73hy2X/cd1/k1Z8/wO8BzjjS5oj/0zuXH8zXo9FAHH+EPhxoPgi7urnRvtQa5RUkE0u8YByMcVp+KfC2m+MNHOl6qJTbGRZf3T7DkZxz+NbtFAHhfjr4NeEfD3gjVdWsY737Vaw74y9xkA5A5GPevn2yiS4vreGTOx5VVsdcEgV9h/Fj/AJJb4g/69v8A2YV8faZ/yFbP/run/oQoA+oR8AfA5APlahz/ANPX/wBal/4Z/wDA/wDzz1D/AMCf/rV6gn3B9KdQBy/g/wAC6L4Ihu4tHWcLdMrSedLv5UEDHp1NdRRRQB8LeKP+Rr1j/r9m/wDQzX1L8D/+SU6X/vzf+jGr5a8Uf8jXrH/X7N/6Ga+pfgf/AMkp0v8A35v/AEY1AHoleG/tBeMJbCwtvDFnKUe8XzrsqcHygcKn0JBJ/wB33r3Kvjv4w6k2pfFDWWLZW3kW3T2CKAf1zQBzGhaHqHiPWbbStMhM13cNtUdAB1JJ7ADkmvozw5+z/wCG9OgjfWnm1O66uN5jiB9AByfxNc5+zfokbyazrkiAyJttYiR0z8zY/Ja+gqAOMX4U+BVQKPDdmQPXcT+eaq3Hwa8BXAP/ABIUjz3jmkX/ANmrvaKAOZ8JeBtF8Ex3cejRzIl0ytIsspfBUEDGfrXTUUUAFFFFABRRRQAUUUUAFFFFABRRRQAUUUUAFFFFABRRRQAUUUUAFFFFABRRRQAUUUUAFFFFABRRRQAUUUUAFFFFABRRRQAUUUUAFFFFABRRRQAUUUUAFFFFABRRRQAUUUUAeG/tJ3DLoehWwPyvcyOR/uqAP/QjXlXwn1fStB+INlqWsXC21pCkn7xlJAYoQOgJ716b+0sh+x+Hn5x5kw/RK8S8N+HNS8V6xHpWlRpJdurOqu4UYUZPJoA+rf8AhcngH/oYIv8AvzJ/8TR/wuTwD/0MEX/fmT/4mvBv+FEeO/8Anwtf/ApKP+FEeO/+fC1/8CkoA95/4XJ4B/6GCL/vzJ/8TXIfE34j+DvEXw91TT9P1mOe7kCGKIROCxDg9xjoDXmv/CiPHf8Az4Wv/gUlH/CiPHf/AD4Wv/gUlAHCaCzJ4i0x1+8t3ER9d4r7ur5b0P4I+NLPX9Nurmzthbw3UUkpFypwoYE8fQV9SUAeJftJ/wDIs6L/ANfjf+gGvKvgx/yVfRf96T/0W1eq/tJ/8izov/X43/oBryr4Mf8AJV9F/wB6T/0W1AH2FRRXg/xz+I13p9wvhXSLhoXeMPezRnDYbpGD2yOT9QPWgD0LxD8VfB/hqVoLzVVmuVOGgtV81lPvjgfia4m6/aQ0NCRa6Jfzehd0TP8AOvBvDXhjVfFmrppuk2/mzMNzMThY17sx7CvZNO/Zsbyw2p+IQsh6rbW+QPxY8/lQBFc/tK3Jz9l8NxL6ebck/wAlFY15+0R4nuY2jh07TIAQR9x3P6tXdWv7OXhqIg3OqanP7Aog/wDQTWr/AMKM8DWdvLKbK6nZEYjzbpuw9sUAfKTMWYsepOa+z/hh/wAkx8O/9eaV8YyACVwOACcV9nfDD/kmPh3/AK80oA6ieCO6tpbeUbo5UKOPUEYNfFXjLwlfeDvEdzpd5E4VWJt5cfLLHnhgfp19DX23WVrnh/SfEdibLWLCK7g6gSLyp9VPUH6UAfIPhX4i+JPBuY9KvsWxbLW0y74yfXB6H6Yr0/Sv2k5lwur6Aj+r2kxX/wAdbP8AOtfWv2c9HuWaTRtVubInpFOolQfjwf51xeofs7+LLbJs7vTrxR0AkaNj+BGP1oA9P0v4+eDL8otzLeWDN18+HKj8VzXe6R4h0fX4vN0nU7W8Tv5MgYj6jqK+QNZ+G3i/QQ73+hXQiXrLEvmJ+a5rnrO9u9Mu0ubK5ltriM5WSJyrKfqKAPvWivJvg58S7nxjaTaTq7htUtEDrMAB58fTJH94HGcdc/WvWaAOM+LH/JLfEH/Xt/7MK+PtM/5Ctn/13T/0IV9g/Fj/AJJb4g/69v8A2YV8faZ/yFbP/run/oQoA+8k+4PpTqan3B9KdQAUUUUAfC3ij/ka9Y/6/Zv/AEM19S/A/wD5JTpf+/N/6MavlrxR/wAjXrH/AF+zf+hmvqX4H/8AJKdL/wB+b/0Y1AHolfDnjGdrnxprkzHLPfTE/wDfZr7jr4X8Up5fi3WE54vZhz/vmgD6Q/Z7t1i+HEkoHzS30pJ+gUf0r1ivK/2fyD8M1HcXswP/AI7XqlABRRRQAUUUUAFFFFABRRRQAUUUUAFFFFABRRRQAUUUUAFFFFABRRRQAUUUUAFFFFABRRRQAUUUUAFFFFABRRRQAUUUUAFFFFABRRRQAUUUUAFFFFABRRRQAUUUUAFFFFABRRRQAUUUUAeMftG2TS+D9MvFXP2e92k+gZD/AFUV5F8Hb8af8UtGZjhZnaA/8CUgfrivpX4m+H28S/D7VbCJd1wsfnwj1dDuA/EAj8a+N7S5msb2C7t3Mc8EiyRsP4WU5B/MUAfe9Fcl4E8c6f430OK7tZEW7VQLm2z80T9+P7p7GutoAKKKKACiiigDxL9pP/kWdF/6/G/9ANeVfBj/AJKvov8AvSf+i2r1X9pP/kWdF/6/G/8AQDXlXwY/5Kvov+9J/wCi2oA+wq+KviRdve/EfxBM5JP2x0GfRTtH6CvtWvi74n2L6f8AErXoXUruumlX3V/mH86APbf2ddMit/Bt/qQUefc3hjZsc7UUYH5sa9krw39nPX7eTRdR0F3VbiKf7TGhPLIwAOPoVH517lQAVXvf+PG5/wCuTfyNWKzda1Kx03S7ia/vLe1i8thvmkCDp70AfC0v+tf/AHjX2b8MP+SY+Hf+vNK+MZMGViDkbjzX1n8JvFuhX3gbSdNi1O3W9tIBFLbyuEcMPQHqPcUAek0U0EMAQQQehFOoAKKKKACvnj9oTwnYWX2DxDZW6Qz3EpguRGuBIcZViPXgjPfivoevnb9oTxbZahJYeHbKZJpbWQz3TI2QjYwq/XBJPpxQBxXwVvHtPippIQ4E/mQt7goT/MCvr6vkb4IabJf/ABR06VFJS0SSdz6DaVH6sK+uaAOM+LH/ACS3xB/17f8Aswr4905gup2jHoJkP6ivtD4g2Tah8PtetkGWeykIHuBn+lfE6sVYMDgg5BoA++kOY1PqBT6yPDepw614a03UYJA8dxbI+R64GR9QcitegAooooA+FvFH/I16x/1+zf8AoZr6l+B//JKdL/35v/RjV8teKP8Aka9Y/wCv2b/0M19S/A//AJJTpf8Avzf+jGoA9Er4r+JVn9h+JHiCDGB9sdwPZjuH86+1K+YP2hNBew8Z2+ron7jUIACwHHmJwf020Adt+zjqAm8J6rYEjdb3gkA9nUf1U17TXyH8IfG0Xg3xaWvnK6dfIIbhsZ8s5yr/AEBzn2Jr61triG7t0uLeZJoZBuSSNgysPUEUAT0UUUAFFFFABRRRQAUUUUAFFFFABRRRQAUUUUAFFFFABRRRQAUUUUAFFFFABRRRQAUUUUAFFFFABRRRQAUUUUAFFFFABRRRQAUUUUAFFFFABRRRQAUUUUAFFFFABRRRQAUUUUAFFFFABXzR8XPhPeaZqFz4h0C1afTbljJPbxLlrdjySAOqE88dPpX0vRQB8FWV/eaZdrc2VzNbTp92SFyjD8RXYW3xg8d2sexfEEzgdPNjRz+ZGa+mdc+G/hHxDIZtQ0O2M7dZogYnP1K4z+Nc63wE8DFiRa3ij0F01AHhx+NXj4jH9t4/7d4//iary/F7x5NnPiK4Uf7EaL/Ja98i+BPgSPk6fcyf790/9DWtbfCXwLaj5PDtq5HeUs/8zQB5L8FvF/iDXfiJ5Gr6zeXcRs5SI5ZSV3Arzjp619H1lad4d0TR236bpNlaPjbvhgVWx6ZAzWrQB4l+0n/yLOi/9fjf+gGvKvgx/wAlX0X/AHpP/RbV9W614d0fxFDFDq+nwXscLb41mXIU4xkVn6f4C8K6RqEN/p+hWVtdwkmOWNMMuRg4/AmgDpa8R+Onw7udZjj8TaTA011bx+XdwoMs8Y5DgdyOc+30r26igD4L0/UL3SL+O9sLiS2uojlJY22spr0KL47+Ooo1j+2WkhUY3varuP1xXv8Ar/wv8H+I5zPfaNEtwxy01uTEzH328H8awR8AvA4OfJvyPQ3Rx/KgDw6/+MnjrUFKtrjwKeot4kj/AFAzXNxx+IPFuo7UXUNWumP+1K3P54r6q0/4O+BdOIZNCjnYdDcSNJ+hOK7Kx0+z02AQWVpBbRD+CGMIPyFAHxHrnhfW/DVyLfWNNntGIBBdcqw9mHB/OsavvqaGK4jMc0SSIf4XUEfkapf2BoxJJ0mwyRgn7Mn+FAGH4fxY/CiwbdgRaOr5z0/dZzmvke38V+IbNs22ualF6bbp/wDGvuAwRGDyDGnlbdvl7Rt24xjHpXPXXw98H3f+u8NaYf8Adt1X+WKAPle3+Kfji2x5fiW+OOzsH/8AQga0E+NPj1Fx/be7jq1vH/8AE19AXPwY8B3Rz/YYi/65TyL/AFrNf4BeB3ORBfJ7LdH+ooA+f9T+JvjTV4mhu/EF35TDBSIiIEf8BArA03S9Q1u+Sz0+0mu7mQ8RxKWJ9z6fU19U2fwO8CWjhzpk1wR2nuHIP4Aiu10nQdJ0K38jS9OtrOPuIYwufqep/GgDjPhR8Oh4G0iSa9KPrF4AZ2XkRqOkYPf1J7n6V6LRRQBHJEksbRyKGRwVZT0IPUV8YePvB134M8T3NhLG5tXcvaTEfLJGTxz6joR619p1narouma9ZGz1WxgvIDzsmQNg+o9D7igD448OePvE3hSMw6RqssFuW3GFgHTPrtYHH4VsT/Gnx7Pn/ieGP/rnBGP/AGWvcLr4CeB7mQulve22TnbFcnH/AI8DRb/APwNBgyQX0/8A10uT/wCygUAYPwI8Ya54lvtbi1rU5r1o44njEmPk5YHGB9K9urnvD3grw74UeR9E0yO0klUJI4ZmZgOcEkmuhoA+FvFH/I16x/1+zf8AoZr6l+B//JKdL/35v/RjVszfDbwZcTyTzeHLB5ZGLuxj5Yk5Jrc0rSdP0TT0sdNtIrW0jJKxRDCgk5P60AX65bx54OtPG/hmbS7giOYHzLafGTFIOh+h6H2NdTRQB8N+I/C2seFNRay1ezkgkBIV8ZSQeqt0IpdH8XeIfD2RpOs3dqmc7I5Ds/75PH6V9sahptlqtq1rf2cF1A3WOaMOv5GuGvvgl4EvZC40l7cntbzuo/LOKAPA/wDhdHj3ytn9un/e8iPP/oNUZ/in45uCQ/iW+H+4wT+QFe+r8AvA6nJhv2Hobo/0Fadn8GvAdmONDSb3nmd/60Acj+z/AOINT1xNdXVNSub2WNoWUzylyoIbpnp0r2ysvSPD2kaCjppOm21mr43+RGFLY6ZPetSgAooooAKKKKACiiigAooooAKKKKACiiigAooooAKKKKACiiigAooooAKKKKACiiigAooooAKKKKACiiigAooooAKKKKACiiigAooooAKKKKACiiigAooooAKKKKACiiigAooooAKKKKACiiigAooooAKKKKACiiigAooooAKKKKACiiigAooooAKKKKACiiigAooooAKKKKACiiigAooooAKKKKACiiigAooooAKKKKACiiigAooooAKKKKACiiigAooooAKKKKACiiigAooooAKKKKACiiigAooooAKKKKACiiigAooooAKKKKACiiigAooooAKKKKACiiigAooooAKKKKACiiigAooooAKKKKACiiigAooooAKKKKACiiigAooooAKKKKACiiigAooooAKKKKACiiigAooooAKKKKACiiigAooooAKKKKACiiigAooooAKKKKACiiigAooooAKKKKACiiigAooooAKKKKACiiigAooooAKKKKACiiigAooooAKKKKACiiigAooooAKKKKACiiigAooooAKKKKACiiigAooooAKKKKACiiigAooooAKKKKACiiigAooooAKKKKACiiigAooooAKKKKACiiigAooooAKKKKACiiigAooooAKKKKACiiigAooooAKKKKACiiigAooooAKKKKACiiigAooooAKKKKACiiigAooooAKKKKACiiigAooooAKKKKACiiigAooooAKKKKACiiigAooooAKKKKACiiigAooooAKKKKACiiigAooooAKKKKACiiigAooooAKKKKACiiigAooooAKKKKACiiigAooooAKKKKACiiigAooooAKKKKACiiigAooooAKKKKACiiigAooooAKKKKACiiigAooooAKKKKACiiigAooooAKKKKACiiigAooooAKKKKACiiigAooooAKKKKACiiigAooooAKKKKACiiigAooooAKKKKACiiigAooooAKKKKACiiigAooooAKKKKACiiigAooooAKKKKACiiigAooooAKKKKACiiigAooooAKKKKACiiigAooooAKKKKACiiigAooooAKKKKACiiigAooooAKKKKACiiigAooooAKKKKACiiigAooooAKKKKACiiigAooooAKKKKACiiigAooooAKKKKACiiigAooooAKKKKACiiigAooooAKKKKACiiigAooooAKKKKACiiigAooooAKKKKACiiigAooooAKKKKACiiigD//Z;" vertex="1" parent="gK9rK_hi8yjl6UL4V2o0-31">
          <mxGeometry x="110" y="15" width="67.84" height="50" as="geometry" />
        </mxCell>
        <mxCell id="gK9rK_hi8yjl6UL4V2o0-30" value="VM" style="text;html=1;strokeColor=none;fillColor=none;align=center;verticalAlign=middle;whiteSpace=wrap;rounded=0;" vertex="1" parent="gK9rK_hi8yjl6UL4V2o0-31">
          <mxGeometry width="60" height="30" as="geometry" />
        </mxCell>
        <mxCell id="gK9rK_hi8yjl6UL4V2o0-35" style="edgeStyle=orthogonalEdgeStyle;rounded=0;orthogonalLoop=1;jettySize=auto;html=1;entryX=0;entryY=0.75;entryDx=0;entryDy=0;" edge="1" parent="1" source="gK9rK_hi8yjl6UL4V2o0-13" target="gK9rK_hi8yjl6UL4V2o0-30">
          <mxGeometry relative="1" as="geometry" />
        </mxCell>
        <mxCell id="gK9rK_hi8yjl6UL4V2o0-36" style="edgeStyle=orthogonalEdgeStyle;rounded=0;orthogonalLoop=1;jettySize=auto;html=1;entryX=-0.004;entryY=0.457;entryDx=0;entryDy=0;entryPerimeter=0;" edge="1" parent="1" source="gK9rK_hi8yjl6UL4V2o0-13" target="gK9rK_hi8yjl6UL4V2o0-21">
          <mxGeometry relative="1" as="geometry" />
        </mxCell>
        <mxCell id="gK9rK_hi8yjl6UL4V2o0-37" value="" style="rounded=1;whiteSpace=wrap;html=1;fillColor=#f5f5f5;fontColor=#333333;strokeColor=#666666;" vertex="1" parent="1">
          <mxGeometry x="120" y="540" width="415" height="200" as="geometry" />
        </mxCell>
        <mxCell id="gK9rK_hi8yjl6UL4V2o0-38" value="" style="group" vertex="1" connectable="0" parent="1">
          <mxGeometry x="165" y="590" width="170" height="110" as="geometry" />
        </mxCell>
        <mxCell id="gK9rK_hi8yjl6UL4V2o0-39" value="" style="ellipse;shape=cloud;whiteSpace=wrap;html=1;fillColor=#dae8fc;strokeColor=#6c8ebf;" vertex="1" parent="gK9rK_hi8yjl6UL4V2o0-38">
          <mxGeometry width="170" height="110" as="geometry" />
        </mxCell>
        <mxCell id="gK9rK_hi8yjl6UL4V2o0-40" value="LMP" style="ellipse;whiteSpace=wrap;html=1;aspect=fixed;fillColor=#d5e8d4;strokeColor=#82b366;" vertex="1" parent="gK9rK_hi8yjl6UL4V2o0-38">
          <mxGeometry x="70" y="48" width="30" height="30" as="geometry" />
        </mxCell>
        <mxCell id="gK9rK_hi8yjl6UL4V2o0-41" value="" style="sketch=0;html=1;dashed=0;whitespace=wrap;fillColor=#2875E2;strokeColor=#ffffff;points=[[0.005,0.63,0],[0.1,0.2,0],[0.9,0.2,0],[0.5,0,0],[0.995,0.63,0],[0.72,0.99,0],[0.5,1,0],[0.28,0.99,0]];verticalLabelPosition=bottom;align=center;verticalAlign=top;shape=mxgraph.kubernetes.icon;prIcon=master" vertex="1" parent="gK9rK_hi8yjl6UL4V2o0-38">
          <mxGeometry x="15" width="35" height="50" as="geometry" />
        </mxCell>
        <mxCell id="gK9rK_hi8yjl6UL4V2o0-42" value="Intranet" style="text;html=1;strokeColor=none;fillColor=none;align=center;verticalAlign=middle;whiteSpace=wrap;rounded=0;" vertex="1" parent="1">
          <mxGeometry x="155" y="550" width="60" height="30" as="geometry" />
        </mxCell>
        <mxCell id="gK9rK_hi8yjl6UL4V2o0-53" style="edgeStyle=orthogonalEdgeStyle;rounded=0;orthogonalLoop=1;jettySize=auto;html=1;entryX=0;entryY=0.75;entryDx=0;entryDy=0;" edge="1" parent="1" source="gK9rK_hi8yjl6UL4V2o0-40" target="gK9rK_hi8yjl6UL4V2o0-52">
          <mxGeometry relative="1" as="geometry" />
        </mxCell>
        <mxCell id="gK9rK_hi8yjl6UL4V2o0-49" value="" style="rounded=1;whiteSpace=wrap;html=1;fillColor=none;dashed=1;" vertex="1" parent="1">
          <mxGeometry x="385" y="630" width="130" height="70" as="geometry" />
        </mxCell>
        <mxCell id="gK9rK_hi8yjl6UL4V2o0-51" value="" style="shape=image;aspect=fixed;image=data:image/jpeg,/9j/4AAQSkZJRgABAQAAAQABAAD/2wBDAAgGBgcGBQgHBwcJCQgKDBQNDAsLDBkSEw8UHRofHh0aHBwgJC4nICIsIxwcKDcpLDAxNDQ0Hyc5PTgyPC4zNDL/2wBDAQkJCQwLDBgNDRgyIRwhMjIyMjIyMjIyMjIyMjIyMjIyMjIyMjIyMjIyMjIyMjIyMjIyMjIyMjIyMjIyMjIyMjL/wAARCAIMAscDASIAAhEBAxEB/8QAHwAAAQUBAQEBAQEAAAAAAAAAAAECAwQFBgcICQoL/8QAtRAAAgEDAwIEAwUFBAQAAAF9AQIDAAQRBRIhMUEGE1FhByJxFDKBkaEII0KxwRVS0fAkM2JyggkKFhcYGRolJicoKSo0NTY3ODk6Q0RFRkdISUpTVFVWV1hZWmNkZWZnaGlqc3R1dnd4eXqDhIWGh4iJipKTlJWWl5iZmqKjpKWmp6ipqrKztLW2t7i5usLDxMXGx8jJytLT1NXW19jZ2uHi4+Tl5ufo6erx8vP09fb3+Pn6/8QAHwEAAwEBAQEBAQEBAQAAAAAAAAECAwQFBgcICQoL/8QAtREAAgECBAQDBAcFBAQAAQJ3AAECAxEEBSExBhJBUQdhcRMiMoEIFEKRobHBCSMzUvAVYnLRChYkNOEl8RcYGRomJygpKjU2Nzg5OkNERUZHSElKU1RVVldYWVpjZGVmZ2hpanN0dXZ3eHl6goOEhYaHiImKkpOUlZaXmJmaoqOkpaanqKmqsrO0tba3uLm6wsPExcbHyMnK0tPU1dbX2Nna4uPk5ebn6Onq8vP09fb3+Pn6/9oADAMBAAIRAxEAPwD3+iiigAooooAKKKKACiiigAooooAKKKKACiiigAooooAKKKKACiiigAooooAKKKKACiiigAooooAKKKKACiiigAooooAKKKKACiiigAooooAKKKKACiiigAooooAKKKKACiiigAooooAKKKKACiiigAooooAKKKKACiiigAooooAKKKKACiiigAooooAKKKKACiiigAooooAKKKKACiiigAooooAKKKKACiiigAooooAKKKKACiiigAooooAKKKKACiiigAooooAKKKKACiiigAooooAKKKKACiiigAooooAKKKKACiiigAooooAKKKKACiiigAooooAKKKKACiiigAooooAKKKKACiiigAooooAKKKKACiiigAooooAKKKKACiiigAooooAKKKKACiiigAooooAKKKKACiiigAooooAKKKKACiiigAooooAKKKKACiiigAooooAKKKKACiiigAooooAKKKKACiiigAooooAKKKKACiiigAooooAKKKKACiiigAooooAKKKKACiiigAooooAKKKKACiiigAooooAKKKKACiiigAooooAKKKKACiiigAooooAKKKKACiiigAooooAKKKKACiiigAooooAKKKKACiiigAooooAKKKKACiiigAooooAKKKKACiiigAooooAKKKKACiiigAooooAKKKKACiiigAooooAKKKKACiiigAooooAKKKKACiiigAooooAKKKKACiiigAooooAKKKKACiiigAooooAKKKKACiiigAooooAKKKKACiiigAooooAKKKKACiiigAooooAKKKKACiiigAooooAKKKKAEooJx1NZV3rUUJKQjzHHp0H41zYnF0cNHnqysi4U5Tdoo1c+tV5b62h/1kqL+NczPf3NxnfKQv8AdTgVXxXzWI4oSdqMPm/8v+CdsMA/ts6Rtcs1OAzN/urTP7ets/ck/wC+a57ik4rzZcR4xvSy+X/BNlgqfmdIuuWbdWZfqtWY7+1l4SZCfTNclgUYHpWtLibExfvxT+9ClgYPZs7cGg1yEF7c25/dytj+63IrXtNcjfCXC+W397+H/wCtXu4PiDDYh8s/dfnt95yVMJUhqtTZopoYMAQQQehFOr3U01ocoUUUUwCiiigAooooAKKKKACiiigAooooAKKKKACiiigAooooAKKKKACiiigAooooAKKKKACiiigAooooAKKKKACiiigAooooAKKKKACiiigAooooAKKKKACiiigAooooAKKKKACiiigAooooAKKKKACiiigAooooAKKKKACiiigAooooAKKKKACiiigBKKilljhQvI6oo5JJxiubvvHmkWjFIWe6cdoRkfnTSb2NaVCrVdqcWzqaK4J/iR83y6W+P9qUZ/lU8HxGtGIFxYzxDuwIYCnys6nlmKSvyfiv8ztvwo7Vmabrunasm6zuUcjqmcMPqOtadI4ZQlB2krMCcCopp44IzJIwVR1Jp0kixRl2ICgZJNctf3z3sueREv3F/qa8nNMzhgqd95PZfq/I2oUHVl5El9qct2Sq5SL+73b61QBpaOlfnuIxVXETc6ju2exCEYLligooornNAooooAKKKKACiiigC3ZahLZsAMvH3Q9vpXS29xHdRCSNtymuONWLO7ks5vMTlT99fUf419BlOczw0lSqu8Py9PI4sRhVNc0dzr6O1QwTpcRLJG2VYZFTV95CanFSi7pnlNNOzFoooqxBRRRQAUUUUAFFFFABRRRQAUUUUAFFFFABRRRQAUUUUAFFFFABRRRQAUUUUAFFFFABRRRQAUUUUAFFFFABRRRQAUUUUAFFFFABRRRQAUUUUAFFFFABRRRQAUUUUAFFFFABRRRQAUUUUAFFFFABRRRQAUUUUAFFFFABRRRQAUUUUAJWbrGr22jae11cngcKg+857Ae9aDMqgknjFeReJNYbWtYeRWP2aEmOFe3u341UY3Z3Zfg/rVWz+Fb/AORBrGt32uTF7qTZCD8kCH5V+v8AeNZ44GBwKKK2PsKdONOKjBWSCiiig0ELtE3nxO0cqcrIhwwP1r2bRJLiXRLOS6ffO0Ks7YxkkV42kRuJooF6yyKg/E17hDGIoUQdAoH5VnUPns9atCPXUyNemIEcIOA2Sw9fSsWr+syb9QYZ4RQP61QHSvy/Oazq42b7O33aGOFjy0kFFFFeYdAUUUUAFFFFABRRRQAUUUUAFFFFAF/Sr02twInP7tzj6H1rps81xXXmun0q7+02YLffThq+x4bx7knhpvbVfqjzMbSt76+ZoUUUV9ceeFFFFABRRRQAUUUUAFFFFABRRRQAUUUUAFFFFABRRRQAUUUUAFFFFABRRRQAUUUUAFFFFABRRRQAUUUUAFFFFABRRRQAUUUUAFFFFABRRRQAUUUUAFFFFABRRRQAUUUUAFFFFABRRRQAUUUUAFFFFABRRRQAUUUUAFFFFABRRRQBheLb02Hhy7lRtsjLsQ+7cV5Io2qB6CvS/iCT/wAI8oHQzpn9a81rWGx9TksEqDl3YUUUVZ7IUUUUAavhq2+1+JrCMjKo5lP/AAEV7Ae9ea/D638zWrq4I4hhCj6sf8BXotzJ5VtJJ/dUmufETUIuT2SPlc4nz4lQXRL8dTk7l/Mu5X9XOKjFA6UV+R1Zuc3N7vU6YqysFFFFQUFFFFABRRRQAUUUUAFFFFABRRRQAVpaHP5d40ZPyuv6is2pLaTy7uJ/7riuzL67o4mE10a+7qZVoc8HE7OigdBRX6mjwQooooAKKKKACiiigAooooAKKKKACiiigAooooAKKKKACiiigAooooAKKKKACiiigAooooAKKKKACiiigAooooAKKKKACiiigAooooAKKKKACiiigAooooAKKKKACiiigAooooAKKKKACiiigAooooAKKKKACiiigAooooAKKKKAOd8Z2rXfhe6CAlogJAAMn5Tz+ma8oWRH+6wJ9M817uRkYPSsy88P6Vfg/aLGFye+zB/MVcZWPWy/M1hoOnON1e547RXo118PdNl5tZp7c+gbcv5GsO6+H+qRc21xBOPRgUP+FWpI9unmuFqfat6/1Y5Wir91oerWWTPp0wUfxIN4/MVnF1UkN8pHUMMVR3QqQmrwd/Q9E+HVvs067uCOZZtoPsoxXR6zJ5enSDPLkLVPwha/ZfDFkpHzOnmH6tz/AFp3iCT5IY/Ulj+FeNnNb2WDqS8rffofI1Ze1xrfn+RiUUUV+YnpBRRRQAUUUUAFFFFABRRRQAUUUUAFFFFABRnGD70Uh6U47oTO0jO6NT6gGn0yEYiQf7Ip9frVP4Fc+ee4tFFFaCCiiigAooooAKKKKACiiigAooooAKKKKACiiigAooooAKKKKACiiigAooooAKKKKACiiigAooooAKKKKACiiigAooooAKKKKACiiigAooooAKKKKACiiigAooooAKKKKACiiigAooooAKKKKACiiigAooooAKKKjkkSKNpJGCooyWJwAKAHFsDJOAOtcdrXj20sna305BdTLwXziNT9e/4VznibxbNq8j2tm7RWAOCRw0v19F9q5kAAYHAr18Nlya5qv3f5nzmOzd3cKH3/AOR0H/Ca699oMn2uMA/8s/KG0f1/WtW0+I1ymBeWMcg/vQvg/ka4qiu6WDoSVnFHlQzDEwd1N/PX8z1O18eaNcYEjy27HtKnH5jNbltqdleqDbXcMuf7rgmvEKQDa25SVb1U4Ncs8spv4W1+J30s8qx+OKf4HvY596p3elWF8pW6tIZQeu9ATXkdr4i1mywIdRl2jokh3j9a3LT4h6lFgXNrDOO5QlT/AIVyTy6tH4WmelRzyje7vF/12PR440hjSKNQqKAFA7CsDW5N2obeyKB+dauj6pDrOmQ3sIKq45U9VPcGqeu2vyrcqOV+V/p2r5XiGhUng5JfZd36I97BVYyqKV7p7fMxaKKK/Oj3AooooAKKKKACiiigAooooAKKKKACiiigAJxT4Y2lnjRQSWYcCiGF7iQRxruc/kPc10lhp8dnHn70h+8x/p7V6+V5XVxk+baC3f6I5q9eNNW6l8cKBS1DJPDEyLJKiM5wgZgCx9B61NX6QlZHi3CiiigAooooAKKKKACiiigAooooAKKKKACiiigAooooAKKKKACiiigAooooAKKKKACiiigAooooAKKKKACiiigAooooAKKKKACiiigAooooAKKKKACiiigAooooAKKKKACiiigAooooAKKKKACiiigAooooAKKKKAGjHFeeePdfMk39j2zkRrhrlgep7J/U/hXb6pfJpum3F2/KwoWx6nsK8TklknleeZt0srF3Pua9LLaCnJzl0/M8TOcU6dNUo7y39BtFFFe4fLBRRRQAUUUUAFFFFAHYeANVNtqEumSNiO4/eRZ7OOo/Efyr0aWFZ4WjblWGDXhkM8trcRXMJxLC4dD7ivbNMvo9T063vIj8kqBvoe4rwc0wyvzW0loz6nJMVzU3Sb1jt6HLyxNDM8b/AHkODTa2NettrpcqOD8r/wBKx6/HcxwrwuJlSey29Oh9xQqe0gpBRRRXEbBRRRQAUUUUAFFFFABRRRQAhNWLW0lvJNsYwB95z0FPsbCS9k4ysQPzP/QV08FvHbxiONQqivoMpyWeKaq1dIfn6HHiMUoe7HchtLOKzjCoOT95j1JrK8UeKrHwxY+bcHzLiTIhgU/NIf6D3qn4v8a2nhm38lNs+oyLmOAH7v8AtN6D+deI3+oXeqX8t7eztNcSH5mPYegHYe1fo+CwMVFJK0Vsj5jHY/2bcY6y/Isa1rd/4g1E3uoTFnH+rjQkLEPRf8e9b3hz4h6rojpDdu9/ZDgpIf3iD/Zbv9DXIUV60qMJR5WtDwY4mrCfOpan0lpGs2OuWCXthOJYm4PYqfQjsa0O3tXzn4c8RXfhrU1vLUlo2wJ4M8Sr/j6Gvf8AStTttX06G+tJN8My7lPceoPuK8mvQdJ6bH0ODxaxEddJIv0UUVznaFFFFABRRRQAUUUUAFFFFABRRRQAUUUUAFFFFABRRRQAUUUUAFFFFABRRRQAUUUUAFFFFABRRRQAUUUUAFFFFABRRRQAUUUUAFFFFABRRRQAUUUUAFFFFABRRRQAUUUUAFFFFABRRRQAUUUUAFFFFAHHfEO5MWhR24P+vmVT9Byf5V5pXe/Ekny9OHbe5/SuCr6HL42orzufHZvJyxTXawUUUV2nmBRRRQAUUUUAFFFSQwy3M6QQRtJLIcKi9TQ5W3BRbdkMVWeRY41Z5HO1UUZLH0Fer+D9IvNH0fybyQFncyLGOkee2e9Q+GPCcOjRi5uds1845fsg9F/xrdv7+3020e5upBHGg5J7+w9TXhY3F+2fs4bH1GW4D6svb1XZ2+5eZZeNZEKOoKnqDWTdaHG2Xt2Mbf3TyK5dPiBcC+ZpLIG0J+RQ2JFHqex+ldTpfiHTtWwLacCXvFIdrj8K8bF5bSxEbVoX8+q+Z6mGzSlKVqc9e3cx7i0ntj+9jIH94cioK7UqGGCAQazrrRrebLR5if1Xp+VfJ4zhmcfew8r+T3+89qnjk9Jo5ziirVzplzbZLJvT+8nNVa+arYerQly1ItPzO6E4yV4u4UUUViWFFFFACHjoK0NP0x7wiSXKQ/q309qm07SjJtmuVwnVYz39zW+AFGBgAV9Vk+RObVbELTou/r5HnYnF8vuw37jY40ijCIoCgcAVwnjT4gRaKX07SmSbUcYdzykH19W9vzrM8bfEQoZdK0KX5xlZ7tei+qp6n37V5d68kknJJOST6mv0PC4NJJyWnRHy2OzDlvCm9erJJ55ri4kuJ5Xmnkbc8jnLMfeo6KK9Q8Fu+rCiiimAV3fwx8RHTtZOkTt/o14cxZPCS4/9mA/MCuEpySyW8iTxNtliYSIR2YHIrKrTVSLizbD1XSqKS6H1DS1R0m+TU9JtL1PuzxLIPxFXa8Jqzsz61NNXQtFFFIoKKKKACiiigAooooAKKKKACiiigAooooAKKKKACiiigAooooAKKKKACiiigAooooAKKKKACiiigAooooAKKKKACiiigAooooAKKKKACiiigAooooAKKKKACiiigAooooAKKKKACiiigAooooA4j4kQl9LtJwP9XPgn2YYrzqvZPEunf2roF1bKMyFN0f8AvDkV40DkA4we49K93LZ81Ll7M+Tzqk41+fpJfkLRRRXonjhRRRQAUUVc0vS7zWL1bW0TLdXkb7sY9T/hUzmoK72KhCU5KMVdsis7O51G7S0s4jJO/QdlHqT2Feq+HfDNvoNvu4lu3H7yUj9B6Cp9D8P2uh2nlQDdK3MkrD5nP+HtRrev2uiW26U75W4jiU/M5/oPevCxWLlWfJDb8z6fBYGnhIe1rP3vy/4JY1XVrTSLNri7favRVH3mPoBXl2sazd63d+dcnZGp/dQg8IP6n3qLUdRutWvTdXb7n6Ig+7GPQf41UqadJQ1e55ePzGWIfLHSH5+oUY5BGQR0I4IoorU8zY39L8X6ppxVZXF3CP4ZD8wHs3+Ndlpfi7S9TKx+b9nnP/LKXj8j0NeXUhUMMEAj3rKVKMj0MNmlehpfmXZ/5nuGAR2qjc6Vb3OSV2v/AHl4rzLTfEWqaSQsFwZYR/yxm+ZfwPUV2Wl+ONPvNsd5mzmPHz8oT7N/jXDicDCrHlqRUkfQYTOKM3vyy8/8x9zpNzb5ZV81fUdfyqgc5IPBHUGuzjdZUDo6up5BByDUNzYW90P3iDP94cGvlMZw1F3lh5W8nt959DSx7+0jku+ByT0Arc03ScYnuV+bqqHt9ferNnpUNpIZMl2/hLDpVi+vrXTbOS7vJkht4xud3OAK0yrIPZSVTEK8ui3FicZdWjt3JpJY4ImkkdURRksxwAPUmvH/ABt8Qn1RpNN0aRo7PlZbgcNL7L6L796zPGHja58SzNb22+30tT8sfRpv9p/b0FcnX3eGwnL709z5TG5jz3p09u4AADAGBRRRXoHjhRRRQAUUUUAFFFFAHunwzuDP4HsgxyYmeP8AJjXXVxXwsQp4JiY/xzyMPz/+tXbV4Ff+JL1PrsK70Y37IWiiiszcKKKKACiiigAooooAKKKKACiiigAooooAKKKKACiiigAooooAKKKKACiiigAooooAKKKKACiiigAooooAKKKKACiiigAooooAKKKKACiiigAooooAKKKKACiiigAooooAKKKKACiiigAooooAbjNeTeMNFOlau08a4trpi4I6K/8AEP6161VDVdMt9WsJLS5GUccEdQexHvXRhMR7Cpfo9zhx+DWJpcq3Wx4nRV7V9Iu9EvTbXa5B/wBVKB8sg9vf2qjX0sJqa5o7Hxc4ShJxkrNBRRWz4e8OXOv3HBaOzQ4kmx1/2V9T79qVSpGEeaTsh0qU6s1CCu2Q6Jod1rt35NuNkKH97ORwg9B6n2r1fSdJtdHs1trVML1Zj1Y+pNS2Gn22mWkdtaxrHEgwAO/ufU1ieJfFUWkIba1Cy3zDhf4Yx6t/hXz+IxM8RLlW39bn1WHwtHAUvaVX73f9EWfEPiO30SDYuJbtx+7iz0929BXmV1c3F9dPdXMplmfqx7D0A7CmSSSzzPNNI0s0hy7t1JplVTpqCPCxuOnipa6RWy/rqFFFFaHAFFFFABRRRQAUdeKKKALmn6rf6S+6yuXjXvGfmQ/h/hXY6X48t5isWpxfZ3Jx5qcofr3FcFSEAgg9DUSpxludmHx9eh8L07PY9wDZ5HIrxn4qSan/AMJBHBcyk6eUD2yLwuf4s+rf0r0DwXq/9oaT9lmbNxakI2erL/Cf6fhTPHvh86/4dlEK5u7c+dB7kdV/EVhRkqdX3j6eq/rWF56b31/4B4PRSA7gD69qWvbPmgooooAKKKKACiiigApGO1SfQZpa2PC+jPr3iS0sQpMW7zJz6Rryfz4H41M5KKbZdODnJRW7PbPBunnTfCOm2zLtcQh2Hu3J/nW/TVUKoUDAAxinV8/KXM2z6+EeSKiugtFFFIsKKKKACiiigAooooAKKKKACiiigAooooAKKKKACiiigAooooAKKKKACiiigAooooAKKKKACiiigAooooAKKKKACiiigAooooAKKKKACiiigAooooAKKKKACiiigAooooAKKKKACiiigAooooAKKKKAKGo6baaraNbXcSyRt2PUH1B7GvOtZ8D3+ns0ljm8t+oX/loo+nevU+3FHauihiqlH4duxx4rAUcSvfWvfqeUeHfCNzq83m3iSW9khwwYbXkI7D0HvXqFvbQ2dukEEapEg2qqjAAqYkAZ6VwnifxcxaSw0yTkfLLOp6f7K+/vVVa1TEy12OaNPD5bS5nq397LXibxatm72OnMr3PSSXqsX+LfyrgSWZmd2ZnY5ZmOSx9SaaAAMClrWEFFWR83i8XUxM+ae3RdgoooqzlCiiigAooooAKKKKACiiigAooooAv6JqjaPq0N5k+VnZMPVD1/Lr+FevRukiq6nIIyPcV4lXofgXVvtentp8rZltuFz1MZ6fl0rnrwuuZHu5NiuWboS2eq9TzT4gaB/YXiWSSJNtpe5mix0Vv41/Pn8a5WvorxD4csfEunraXocKjh0dDhkb2rgr34QyrltP1UN6JcR/1H+FdVDFw5EpvU3xeX1PaOVNXTPMqK6e/+H/iWwyTp/wBoQfxW7hv0ODXOXNvcWb7Lq3mgb0ljK/zrrjUjL4Xc82dGpD4k0R0UAgjIII9qK0Mwoop0cbzSpDFG8krnCRoMsx9AKASuNClsKqlmY4VQMkn0Fe5eAPCx8PaSZrpQdQugGl/6Zr2T8O/vWX4F8Af2Y0eq6sitfYzFD1EPufVv5V6LXlYvEqfuQ2PfwGCdP95U36eQtFFFcJ6wUUUUAFFFFABRRRQAUUUUAFFFFABRRRQAUUUUAFFFFABRRRQAUUUUAFFFFABRRRQAUUUUAFFFFABRRRQAUUUUAFFFFABRRRQAUUUUAFFFFABRRRQAUUUUAFFFFABRRRQAUUUUAFFFFABRRRQAUUUUAFFFFABRRRQBma/N9n0G+mBwVibB+orx5BiNQPSvWPFpx4Wvsf3AP1FeUjoK68P8LPl89f72K8v1CiiitzxAooooAKKKKACiiigAooooAKKKKACiiigArsvh5b7rq+uiPuqsSn9TXG16P4Ct/K8P+d3nlZ/w6D+VZVnaB6eU0+fExfa7/Q6K9vIbC1e4mJEaDkgZNVbbXNNuseVdx5P8JOD+tZ3jCfZpccQPMsgH4DmuLKhuoB+or5zFY+dCtyRSasfVTqOLsj1VWVhkEEetRzW0FwhSaFJEPUOoIrzOG4uLY5guJov91zj8q07fxNqkHDSxzD0kXn8xRTzem/ii1+Ie0T3RsX/gDw3qGWk0yOJz/HATGf0rmb74QWzZOn6rPEeyzqHH58Guht/GS8C5tGX1aNs/oa1bfxHpdyQBciNj/DJ8v869KjmkH8M/v/4JlPD4epvFfkeaWvwl1V7opd6hbx24P34lLMw9geleg+HvCGk+HI82cG+4Iw1xJ8zt+PYewroe1A6V1VMRUqKzY6ODo0neK1FooorE6gooooAKKKKACiiigAooooAKKKKACiiigAooooAKKKKACiiigAooooAKKKKACiiigAooooAKKKKACiiigAooooAKKKKACiiigAooooAKKKKACiiigAooooAKKKKACiiigAooooAKKKKACiiigAooooAKKKKACiiigAooooAxfE8Zk8NagoGT5RP5c15MvKg+1e13luLmzngPSSNk/MYrxQK0eY24ZCVP1Brqw70aPmc8hapGfdW+7/hxaKKK6DwgooooAKKKKACiiigAooooAKKKKACiiigBGO1GPoM16/4fthZ6DYwYwVhXP1Iya8ltoDdXlvbjrLKqfma9qVQqhR0ArnxD0SPfyOn705+iOP8AGU269tYB/Ahc/jxXOVp+IZvP165OciPbGPwHP86zK+Ixc+evKXn+Wh7M3eTCiiiuckKRhlTS0HofpSA9J0qc3Ol20x6tGM/WrtZnh8FdCswf7n9a06+xotunFvsjsjshaKKK1GFFFFABRRRQAUUUUAFFFFABRRRQAUUUUAFFFFABRRRQAUUUUAFFFFABRRRQAUUUUAFFFFABRRRQAUUUUAFFFFABRRRQAUUUUAFFFFABRRRQAUUUUAFFFFABRRRQAUUUUAFFFFABRRRQAUUUUAFFFFABRRRQAUUUUAFFFFADeMV5N4psTYeI7pAMRz/vk49ev6161XJeOdKN3pi3sKZmtCWIHUofvf41rSlaR5ma4d1qDa3jqed0UZBGRyKK7T48KKKKACiiigAooooAKKKKACiiigAooooA2fClv9p8TWYIyI90h/Af/Xr1ZiFUk9AM1598P7cvqN5ckcRxhAfcnP8ASu11e4+zaTdTA4KocfXpXBi5qN2+iPrMnhyYbm7ts86nl8+5mm/56SM360ykUYRR6Clr4dtt3Z1BRRRQAUqxtNIkSDLyMFUe5pK6HwtphnuP7QlX91HkRZ/ibu30FbYei6tRRXUcVzOx19vELe2iiXpGgX8hU9FFfWpJKyOwKKKKoAooooAKKKKACiiigAooooAKKKKACiiigAooooAKKKKACiiigAooooAKKKKACiiigAooooAKKKKACiiigAooooAKKKKACiiigAooooAKKKKACiiigAooooAKKKKACiiigAooooAKKKKACiiigAooooAKKKKACiiigAooooAKayhlKsAQRgg96dRQB5J4j0RtE1Moin7JMS0Lenqv4fyrIr2LVdMt9WsHtLlcq3KsOqt2I968o1PTLnSL1rW6XnrHIOki+o/wrspVOZWe58jmeAdCfPBe6/w8ipRRRWx5QUUUUAFFFFABRRRQAUUUUAFISACT0FL0GTXUeFPDTahKmoXiFbVDuiRh/rD6n/Z/nUykoq7N8PQnXqKEdzofBWmzWOjtLOmyS4fzAD1C44z/AD/GtPXrKe/0qSC2K+Y2OGOMgHpWqBgUV51ZKqnGXU+2o0I0qaprZHlksckEhjmjaNx1Vxg0yvTrmytrtNlxCki/7QzWRL4S01ySoljz2V+P1rwKmVVU/caa+4l0X0OIozyB1J6Ada7VPCGng/NJO/sX/wDrVp2mkWFlzBbIrf3sZP5mphlVVv3mkCpS6nKaT4ZnvGEt6rQ2/Xyzw0n19BXaxRpFEI0UKijAAGABUlFexh8LChG0d+5tGCjsLRRRXUUFFFFABRRRQAUUUUAFFFFABRRRQAUUUUAFFFFABRRRQAUUUUAFFFFABRRRQAUUUUAFFFFABRRRQAUUUUAFFFFABRRRQAUUUUAFFFFABRRRQAUUUUAFFFFABRRRQAUUUUAFFFFABRRRQAUUUUAFFFFABRRRQAUUUUAFFFFABRRRQAUUUUAJ3rO1TSbXWLRre6TI6qw4ZT6g9q0e1FNO2qInCM4uMldM8j1rw/e6HIWlUzWuflnQcD2Ydj+lZXUZHSvbmRZEKuAynggjIrlNV8C2VyWlsHNpKedoGUJ+nb8K6YV1tI+dxeTST5qGq7f5HnlFal/4b1fTiTLZtLGP+WkHzj8uorKLANtPDeh4Nbpp7Hi1KU6btNWfmLRRmimZhRSEgdTUkEM104S2hkmY9BGpNBSi27IZQMl1RQWdjhVUZJ+grpdO8EaneFXumW0iPUH5nP4dBXaaV4b07SEzBDumI+aWTlz+Pb8KylWjHzPRw2VVq2slyrz/AMjmPD/gt5WW71ZMIDlLb193/wAK71VVUCqAAOw7UpAwKOcVyzm5O7PpsLhKeHhywXz6sdRRRUHUFFFFABRRRQAUUUUAFFFFABRRRQAUUUUAFFFFABRRRQAUUUUAFFFFABRRRQAUUUUAFFFFABRRRQAUUUUAFFFFABRRRQAUUUUAFFFFABRRRQAUUUUAFFFFABRRRQAUUUUAFFFFABRRRQAUUUUAFFFFABRRRQAUUUUAFFFFABRRRQAUUUUAFFFFABRRRQAUUUUAFFFFABRRRQAUUUUAJ1FU7nTbK8/4+LWKTP8AfQGrlJ+NO9iZQjJWkrmG/hDQpOTp6Kf9liP5GmDwXoYOfsjH2Mjf410GKPxp88u5g8JQf2F9xjQeGdGt23R6dBn1Ybv51qRQRQLtjjRF9FUAVLRSbb3NIUqcPhil6IWiiikahRRRQAUUUUAFFFFABRRRQAUUUUAFFFFABRRRQAUUUUAFFFFABRRRQAUUUUAFFFFABRRRQAUUUUAFFFFABRRRQAUUUUAFFFFABRRRQAUUUUAFFFFABRRRQAUUUUAFFFFABRRRQAUUUUAFFFFABRRRQAUUUUAFFFFABRRRQAUUUUAFFFFABRRRQAUUUUAFFFFABRRRQAUUUUAFFFFABRRRQAUUUUAFFFFABRRRQAUUUUAFFFFABRRRQAUUUUAFFFFABRRRQAUUUUAFFFFABRRRQAUUUUAFFFFABRRRQAUUUUAFFFFABRRRQAUUUUAFFFFABRRRQAUUUUAFFFFABRRRQAUUUUAFFFFABRRRQAUUUUAFFFFABRRRQAUUUUAFFFFABRRRQAUUUUAFFFFABRRRQAUUUUAFFFFABRRRQAUUUUAFFFFABRRRQAUUUUAFFZmra9pOhRRS6tqFtZRytsRp5AoY4zgZqlYeNPDOqX0VlY65YXF1LkRxRThmbAycD6UAdBRRRQAUUUUAFFFFABRRRQAUUUUAFFFFABRRRQAUUUUAFFFFABRRRQAUUUUAFFFFABRRRQAUUUUAFFFFABRRRQAUUUUAFFFFABRRRQAUUUUAFFFFABRRRQAUUUUAFFFFABRRRQAUUUUAFFFFABRRRQAUUUUAFFFFABRRRQAUUUUAFFFFABRRRQAUUUUAFFFFABRRRQAUUUUAFFFFABRRRQAUUUUAFFFFABRRRQAUUUUAeI/tJ/8AIs6L/wBfjf8AoBryv4MD/i6+i/70n/otq9V/aT/5FnRf+vxv/QDXlXwY/wCSr6L/AL0n/otqAPsKiiigAooooAKKKKACiiigAooooAKKKKACiiigAooooArXt7a6dZyXd7cR29tEN0ksrBVUepJrGHjvwkzKq+JNLJYgAC6Tknp3rN+LAz8LfEGf+fb/ANmWvj/TP+QrZ/8AXdP/AEIUAfelFNT7g+lOoAKKKKAPjfxB458V23iTVIIfEeppHHdyqqi5YAAOcDrX0X8H9QvdU+G2n3moXU11cu8u6WZyzHDkDk1weqfs7zajql5er4jRDcTvLtNqTtDEnH3vevU/Anhd/B3hK10SS7W6aBnPmqmwHcxPTJ9aAOmooooAKKKKACiiigAooooAKKKKACiiigAooooAKKKKACiiigAooooAKKKKACiiigAooooAKKKKACiiigAooooAKKKKACiiigAooooAKKKKACiiigAooooAKKKKACiiigAooooAKKKKACiiigAooooAKKK5zxd4y0jwVpBvtVnwTkQwKcyTN6KP5noKAOjor5W8SfHnxTq8rppTR6Ta5+URKHkI93I6/QCuKn8c+K7ly0viPVGY+l04/kaAPt6iviyw+JnjPTXDW/iO/ODnbLJ5in8GzXqngv8AaDd7iOz8WW8ao5Ci+t1xt93T09x+VAHv9FQwTxXMEc8EiyRSKHR1OQwPIIPpU1AHiX7Sf/Is6L/1+N/6Aa8q+DH/ACVfRf8Aek/9FtXqv7Sf/Is6L/1+N/6Aa8q+DH/JV9F/3pP/AEW1AH2FRRXkfx91TUNJ8KabNp19cWkrXu1mglKFhsbg460AeuUV8Pf8Jt4q/wChi1T/AMC3/wAaP+E28Vf9DFqn/gW/+NAH3DRXw+PG/ioHP/CRap/4Fv8A41taV8XPG+kyh012e5QdY7oCVT+fP5GgD7GorzP4a/Fm08bsdPvYVstXRd3lq2UmHcpnnI7j+demUAFFFcZ44+JGi+BbQG9Zri+kXMNnEfnYepP8K+5/DNAHZ0V8n698dvGOrSMLK4i0u3J4S2QFvxZsn8sVysnxA8XTPvfxLqhb2uWH9aAPtqiviuL4k+NYPueJtS/GYn+dXofi/wCPLc8eIZ39pI0b+a0AfY1FeNfBTx74i8Y6hqsGtXiXEdtDG0e2FUIJJB5AGeldT8WvEmp+FPBDanpEyw3QuY49zRhxtOc8HigCz8WP+SW+IP8Ar2/9mFfH2mf8hWz/AOu6f+hCuw1f4u+Mdd0m50zUL+GS1uU2SqLZFJH1A4riYZngmjmjOHjYMp9CDkUAffCfcH0p1fJP/C9vHv8A0E7f/wABI/8ACk/4Xr49/wCgnB/4CR/4UAfW9FeVfBbxprnjSw1abW7mOZraWNYtkSpgEEnoOegr1WgAor5X1v40+OLDXtRtINSgEUFzJGg+yxnChiB2r3b4Ya9qPibwFY6rqsyy3kzSB3VAgIDkDgcdBQB2VFFRSSpDG8kjqkagszMcAAdSTQBLRXg/jX9oGO1uJLHwrbxz7SVN9OCUJ/2F7j3P5V5VqHxV8b6k7GXxFdxhv4ICIgP++QKAPs2iviKPx34tik3p4k1QN6/anP8AWtiy+MPjuybK6/NKPSeNJP5igD7Foryr4N+Pdd8b2+qvrP2ZhaGNY2hj2Elt2c847CvVaACiiigAooooAKKKKACiiigAooooAKKKKACiiigAooooAKKKKACiiigAooooAKKKKACiiigAooooAKKKKACiiigAooooAKKKKACiiigAooooAKKKKACiiigAooooAKKKKAK95dw2FlPd3LhIII2kkY9lAyTXxf468XXnjTxPc6pcswhyUtoSeIoh0A9+59ya+jvjjrDaX8M7uKN9sl9KlsPXaTlv0Uj8a+afBWir4i8aaRpMgzFcXKiQf7A5b9AaAPUfhn8E4tb0+DXPEjTR2kwD29nGdrSL2Zz1APYDnvmvZLX4b+DbOMRw+G9OwBjLwhyfqWya6dI0ijWONQqKAqqBgADtUlAHA658HvBet2zxjSY7CYj5Z7P92yn1x0P4ivmjx34KvvAuvtp103mwuN9tcAYEqf0I6EV9q15B+0Lo8d54Ft9S2/vrG6XDf7D/ACkfnt/KgDD/AGfPGc04ufCl5KXWJDPZFjkqufnQe3OR+Ne918W/DTU20j4jaFdBiqm6WJ/dX+Q/zr7SoA8S/aT/AORZ0X/r8b/0A15V8GP+Sr6L/vSf+i2r1X9pP/kWdF/6/G/9ANeVfBj/AJKvov8AvSf+i2oA+wqytb8PaR4jt47fV7CG9hifzESUZCtjGfyNatFAHI/8Kv8ABH/Qs6f/AN+6P+FX+CP+hZ0//v3XXUUAcgfhf4IIx/wjOn/9+/8A69eX/FD4MabY6Hc674aje3a1XzJ7TcWVkHVlzyCOuPSvf6p6pEs+lXkLgFJIHVge4KkUAfDek6ncaNq1pqdo5S4tpVlRgccg5x9D0r7k0y+j1PSbO/ix5dzCky49GAP9a+D3G12HoSK+0Pho5k+Gnh1mOT9iQfkMUAdHfXkdhp9zezHEVvE0r/RQSf5V8PeItcvPEmvXerXzl57mQvyeFHZR7AYH4V9leOFZ/AmvqgJY2E2Mf7hr4goA90+G3wRtda0m31rxLJKIbhQ8FnE2wlD0Z2689gO3evVofhN4FgjCL4ctWx3csx/MmtvwpeW2oeEtIurNkaB7SPYV6DCgEfgRj8K2qAOIk+EXgOb73hy2X/cd1/k1Z8/wO8BzjjS5oj/0zuXH8zXo9FAHH+EPhxoPgi7urnRvtQa5RUkE0u8YByMcVp+KfC2m+MNHOl6qJTbGRZf3T7DkZxz+NbtFAHhfjr4NeEfD3gjVdWsY737Vaw74y9xkA5A5GPevn2yiS4vreGTOx5VVsdcEgV9h/Fj/AJJb4g/69v8A2YV8faZ/yFbP/run/oQoA+oR8AfA5APlahz/ANPX/wBal/4Z/wDA/wDzz1D/AMCf/rV6gn3B9KdQBy/g/wAC6L4Ihu4tHWcLdMrSedLv5UEDHp1NdRRRQB8LeKP+Rr1j/r9m/wDQzX1L8D/+SU6X/vzf+jGr5a8Uf8jXrH/X7N/6Ga+pfgf/AMkp0v8A35v/AEY1AHoleG/tBeMJbCwtvDFnKUe8XzrsqcHygcKn0JBJ/wB33r3Kvjv4w6k2pfFDWWLZW3kW3T2CKAf1zQBzGhaHqHiPWbbStMhM13cNtUdAB1JJ7ADkmvozw5+z/wCG9OgjfWnm1O66uN5jiB9AByfxNc5+zfokbyazrkiAyJttYiR0z8zY/Ja+gqAOMX4U+BVQKPDdmQPXcT+eaq3Hwa8BXAP/ABIUjz3jmkX/ANmrvaKAOZ8JeBtF8Ex3cejRzIl0ytIsspfBUEDGfrXTUUUAFFFFABRRRQAUUUUAFFFFABRRRQAUUUUAFFFFABRRRQAUUUUAFFFFABRRRQAUUUUAFFFFABRRRQAUUUUAFFFFABRRRQAUUUUAFFFFABRRRQAUUUUAFFFFABRRRQAUUUUAeG/tJ3DLoehWwPyvcyOR/uqAP/QjXlXwn1fStB+INlqWsXC21pCkn7xlJAYoQOgJ716b+0sh+x+Hn5x5kw/RK8S8N+HNS8V6xHpWlRpJdurOqu4UYUZPJoA+rf8AhcngH/oYIv8AvzJ/8TR/wuTwD/0MEX/fmT/4mvBv+FEeO/8Anwtf/ApKP+FEeO/+fC1/8CkoA95/4XJ4B/6GCL/vzJ/8TXIfE34j+DvEXw91TT9P1mOe7kCGKIROCxDg9xjoDXmv/CiPHf8Az4Wv/gUlH/CiPHf/AD4Wv/gUlAHCaCzJ4i0x1+8t3ER9d4r7ur5b0P4I+NLPX9Nurmzthbw3UUkpFypwoYE8fQV9SUAeJftJ/wDIs6L/ANfjf+gGvKvgx/yVfRf96T/0W1eq/tJ/8izov/X43/oBryr4Mf8AJV9F/wB6T/0W1AH2FRRXg/xz+I13p9wvhXSLhoXeMPezRnDYbpGD2yOT9QPWgD0LxD8VfB/hqVoLzVVmuVOGgtV81lPvjgfia4m6/aQ0NCRa6Jfzehd0TP8AOvBvDXhjVfFmrppuk2/mzMNzMThY17sx7CvZNO/Zsbyw2p+IQsh6rbW+QPxY8/lQBFc/tK3Jz9l8NxL6ebck/wAlFY15+0R4nuY2jh07TIAQR9x3P6tXdWv7OXhqIg3OqanP7Aog/wDQTWr/AMKM8DWdvLKbK6nZEYjzbpuw9sUAfKTMWYsepOa+z/hh/wAkx8O/9eaV8YyACVwOACcV9nfDD/kmPh3/AK80oA6ieCO6tpbeUbo5UKOPUEYNfFXjLwlfeDvEdzpd5E4VWJt5cfLLHnhgfp19DX23WVrnh/SfEdibLWLCK7g6gSLyp9VPUH6UAfIPhX4i+JPBuY9KvsWxbLW0y74yfXB6H6Yr0/Sv2k5lwur6Aj+r2kxX/wAdbP8AOtfWv2c9HuWaTRtVubInpFOolQfjwf51xeofs7+LLbJs7vTrxR0AkaNj+BGP1oA9P0v4+eDL8otzLeWDN18+HKj8VzXe6R4h0fX4vN0nU7W8Tv5MgYj6jqK+QNZ+G3i/QQ73+hXQiXrLEvmJ+a5rnrO9u9Mu0ubK5ltriM5WSJyrKfqKAPvWivJvg58S7nxjaTaTq7htUtEDrMAB58fTJH94HGcdc/WvWaAOM+LH/JLfEH/Xt/7MK+PtM/5Ctn/13T/0IV9g/Fj/AJJb4g/69v8A2YV8faZ/yFbP/run/oQoA+8k+4PpTqan3B9KdQAUUUUAfC3ij/ka9Y/6/Zv/AEM19S/A/wD5JTpf+/N/6MavlrxR/wAjXrH/AF+zf+hmvqX4H/8AJKdL/wB+b/0Y1AHolfDnjGdrnxprkzHLPfTE/wDfZr7jr4X8Up5fi3WE54vZhz/vmgD6Q/Z7t1i+HEkoHzS30pJ+gUf0r1ivK/2fyD8M1HcXswP/AI7XqlABRRRQAUUUUAFFFFABRRRQAUUUUAFFFFABRRRQAUUUUAFFFFABRRRQAUUUUAFFFFABRRRQAUUUUAFFFFABRRRQAUUUUAFFFFABRRRQAUUUUAFFFFABRRRQAUUUUAFFFFABRRRQAUUUUAeMftG2TS+D9MvFXP2e92k+gZD/AFUV5F8Hb8af8UtGZjhZnaA/8CUgfrivpX4m+H28S/D7VbCJd1wsfnwj1dDuA/EAj8a+N7S5msb2C7t3Mc8EiyRsP4WU5B/MUAfe9Fcl4E8c6f430OK7tZEW7VQLm2z80T9+P7p7GutoAKKKKACiiigDxL9pP/kWdF/6/G/9ANeVfBj/AJKvov8AvSf+i2r1X9pP/kWdF/6/G/8AQDXlXwY/5Kvov+9J/wCi2oA+wq+KviRdve/EfxBM5JP2x0GfRTtH6CvtWvi74n2L6f8AErXoXUruumlX3V/mH86APbf2ddMit/Bt/qQUefc3hjZsc7UUYH5sa9krw39nPX7eTRdR0F3VbiKf7TGhPLIwAOPoVH517lQAVXvf+PG5/wCuTfyNWKzda1Kx03S7ia/vLe1i8thvmkCDp70AfC0v+tf/AHjX2b8MP+SY+Hf+vNK+MZMGViDkbjzX1n8JvFuhX3gbSdNi1O3W9tIBFLbyuEcMPQHqPcUAek0U0EMAQQQehFOoAKKKKACvnj9oTwnYWX2DxDZW6Qz3EpguRGuBIcZViPXgjPfivoevnb9oTxbZahJYeHbKZJpbWQz3TI2QjYwq/XBJPpxQBxXwVvHtPippIQ4E/mQt7goT/MCvr6vkb4IabJf/ABR06VFJS0SSdz6DaVH6sK+uaAOM+LH/ACS3xB/17f8Aswr4905gup2jHoJkP6ivtD4g2Tah8PtetkGWeykIHuBn+lfE6sVYMDgg5BoA++kOY1PqBT6yPDepw614a03UYJA8dxbI+R64GR9QcitegAooooA+FvFH/I16x/1+zf8AoZr6l+B//JKdL/35v/RjV8teKP8Aka9Y/wCv2b/0M19S/A//AJJTpf8Avzf+jGoA9Er4r+JVn9h+JHiCDGB9sdwPZjuH86+1K+YP2hNBew8Z2+ron7jUIACwHHmJwf020Adt+zjqAm8J6rYEjdb3gkA9nUf1U17TXyH8IfG0Xg3xaWvnK6dfIIbhsZ8s5yr/AEBzn2Jr61triG7t0uLeZJoZBuSSNgysPUEUAT0UUUAFFFFABRRRQAUUUUAFFFFABRRRQAUUUUAFFFFABRRRQAUUUUAFFFFABRRRQAUUUUAFFFFABRRRQAUUUUAFFFFABRRRQAUUUUAFFFFABRRRQAUUUUAFFFFABRRRQAUUUUAFFFFABXzR8XPhPeaZqFz4h0C1afTbljJPbxLlrdjySAOqE88dPpX0vRQB8FWV/eaZdrc2VzNbTp92SFyjD8RXYW3xg8d2sexfEEzgdPNjRz+ZGa+mdc+G/hHxDIZtQ0O2M7dZogYnP1K4z+Nc63wE8DFiRa3ij0F01AHhx+NXj4jH9t4/7d4//iary/F7x5NnPiK4Uf7EaL/Ja98i+BPgSPk6fcyf790/9DWtbfCXwLaj5PDtq5HeUs/8zQB5L8FvF/iDXfiJ5Gr6zeXcRs5SI5ZSV3Arzjp619H1lad4d0TR236bpNlaPjbvhgVWx6ZAzWrQB4l+0n/yLOi/9fjf+gGvKvgx/wAlX0X/AHpP/RbV9W614d0fxFDFDq+nwXscLb41mXIU4xkVn6f4C8K6RqEN/p+hWVtdwkmOWNMMuRg4/AmgDpa8R+Onw7udZjj8TaTA011bx+XdwoMs8Y5DgdyOc+30r26igD4L0/UL3SL+O9sLiS2uojlJY22spr0KL47+Ooo1j+2WkhUY3varuP1xXv8Ar/wv8H+I5zPfaNEtwxy01uTEzH328H8awR8AvA4OfJvyPQ3Rx/KgDw6/+MnjrUFKtrjwKeot4kj/AFAzXNxx+IPFuo7UXUNWumP+1K3P54r6q0/4O+BdOIZNCjnYdDcSNJ+hOK7Kx0+z02AQWVpBbRD+CGMIPyFAHxHrnhfW/DVyLfWNNntGIBBdcqw9mHB/OsavvqaGK4jMc0SSIf4XUEfkapf2BoxJJ0mwyRgn7Mn+FAGH4fxY/CiwbdgRaOr5z0/dZzmvke38V+IbNs22ualF6bbp/wDGvuAwRGDyDGnlbdvl7Rt24xjHpXPXXw98H3f+u8NaYf8Adt1X+WKAPle3+Kfji2x5fiW+OOzsH/8AQga0E+NPj1Fx/be7jq1vH/8AE19AXPwY8B3Rz/YYi/65TyL/AFrNf4BeB3ORBfJ7LdH+ooA+f9T+JvjTV4mhu/EF35TDBSIiIEf8BArA03S9Q1u+Sz0+0mu7mQ8RxKWJ9z6fU19U2fwO8CWjhzpk1wR2nuHIP4Aiu10nQdJ0K38jS9OtrOPuIYwufqep/GgDjPhR8Oh4G0iSa9KPrF4AZ2XkRqOkYPf1J7n6V6LRRQBHJEksbRyKGRwVZT0IPUV8YePvB134M8T3NhLG5tXcvaTEfLJGTxz6joR619p1narouma9ZGz1WxgvIDzsmQNg+o9D7igD448OePvE3hSMw6RqssFuW3GFgHTPrtYHH4VsT/Gnx7Pn/ieGP/rnBGP/AGWvcLr4CeB7mQulve22TnbFcnH/AI8DRb/APwNBgyQX0/8A10uT/wCygUAYPwI8Ya54lvtbi1rU5r1o44njEmPk5YHGB9K9urnvD3grw74UeR9E0yO0klUJI4ZmZgOcEkmuhoA+FvFH/I16x/1+zf8AoZr6l+B//JKdL/35v/RjVszfDbwZcTyTzeHLB5ZGLuxj5Yk5Jrc0rSdP0TT0sdNtIrW0jJKxRDCgk5P60AX65bx54OtPG/hmbS7giOYHzLafGTFIOh+h6H2NdTRQB8N+I/C2seFNRay1ezkgkBIV8ZSQeqt0IpdH8XeIfD2RpOs3dqmc7I5Ds/75PH6V9sahptlqtq1rf2cF1A3WOaMOv5GuGvvgl4EvZC40l7cntbzuo/LOKAPA/wDhdHj3ytn9un/e8iPP/oNUZ/in45uCQ/iW+H+4wT+QFe+r8AvA6nJhv2Hobo/0Fadn8GvAdmONDSb3nmd/60Acj+z/AOINT1xNdXVNSub2WNoWUzylyoIbpnp0r2ysvSPD2kaCjppOm21mr43+RGFLY6ZPetSgAooooAKKKKACiiigAooooAKKKKACiiigAooooAKKKKACiiigAooooAKKKKACiiigAooooAKKKKACiiigAooooAKKKKACiiigAooooAKKKKACiiigAooooAKKKKACiiigAooooAKKKKACiiigAooooAKKKKACiiigAooooAKKKKACiiigAooooAKKKKACiiigAooooAKKKKACiiigAooooAKKKKACiiigAooooAKKKKACiiigAooooAKKKKACiiigAooooAKKKKACiiigAooooAKKKKACiiigAooooAKKKKACiiigAooooAKKKKACiiigAooooAKKKKACiiigAooooAKKKKACiiigAooooAKKKKACiiigAooooAKKKKACiiigAooooAKKKKACiiigAooooAKKKKACiiigAooooAKKKKACiiigAooooAKKKKACiiigAooooAKKKKACiiigAooooAKKKKACiiigAooooAKKKKACiiigAooooAKKKKACiiigAooooAKKKKACiiigAooooAKKKKACiiigAooooAKKKKACiiigAooooAKKKKACiiigAooooAKKKKACiiigAooooAKKKKACiiigAooooAKKKKACiiigAooooAKKKKACiiigAooooAKKKKACiiigAooooAKKKKACiiigAooooAKKKKACiiigAooooAKKKKACiiigAooooAKKKKACiiigAooooAKKKKACiiigAooooAKKKKACiiigAooooAKKKKACiiigAooooAKKKKACiiigAooooAKKKKACiiigAooooAKKKKACiiigAooooAKKKKACiiigAooooAKKKKACiiigAooooAKKKKACiiigAooooAKKKKACiiigAooooAKKKKACiiigAooooAKKKKACiiigAooooAKKKKACiiigAooooAKKKKACiiigAooooAKKKKACiiigAooooAKKKKACiiigAooooAKKKKACiiigAooooAKKKKACiiigAooooAKKKKACiiigAooooAKKKKACiiigAooooAKKKKACiiigAooooAKKKKACiiigAooooAKKKKACiiigAooooAKKKKACiiigAooooAKKKKACiiigAooooAKKKKACiiigAooooAKKKKACiiigAooooAKKKKACiiigAooooAKKKKACiiigAooooAKKKKACiiigAooooAKKKKACiiigAooooAKKKKACiiigAooooAKKKKACiiigAooooAKKKKACiiigD//Z;" vertex="1" parent="1">
          <mxGeometry x="435" y="650" width="67.84" height="50" as="geometry" />
        </mxCell>
        <mxCell id="gK9rK_hi8yjl6UL4V2o0-52" value="VM" style="text;html=1;strokeColor=none;fillColor=none;align=center;verticalAlign=middle;whiteSpace=wrap;rounded=0;" vertex="1" parent="1">
          <mxGeometry x="385" y="630" width="60" height="30" as="geometry" />
        </mxCell>
        <mxCell id="gK9rK_hi8yjl6UL4V2o0-74" value="" style="rounded=1;whiteSpace=wrap;html=1;fillColor=#f5f5f5;fontColor=#333333;strokeColor=#666666;" vertex="1" parent="1">
          <mxGeometry x="625" y="540" width="415" height="200" as="geometry" />
        </mxCell>
        <mxCell id="gK9rK_hi8yjl6UL4V2o0-75" value="" style="group" vertex="1" connectable="0" parent="1">
          <mxGeometry x="670" y="590" width="170" height="110" as="geometry" />
        </mxCell>
        <mxCell id="gK9rK_hi8yjl6UL4V2o0-76" value="" style="ellipse;shape=cloud;whiteSpace=wrap;html=1;fillColor=#dae8fc;strokeColor=#6c8ebf;" vertex="1" parent="gK9rK_hi8yjl6UL4V2o0-75">
          <mxGeometry width="170" height="110" as="geometry" />
        </mxCell>
        <mxCell id="gK9rK_hi8yjl6UL4V2o0-77" value="LMP" style="ellipse;whiteSpace=wrap;html=1;aspect=fixed;fillColor=#d5e8d4;strokeColor=#82b366;" vertex="1" parent="gK9rK_hi8yjl6UL4V2o0-75">
          <mxGeometry x="70" y="48" width="30" height="30" as="geometry" />
        </mxCell>
        <mxCell id="gK9rK_hi8yjl6UL4V2o0-78" value="" style="sketch=0;html=1;dashed=0;whitespace=wrap;fillColor=#2875E2;strokeColor=#ffffff;points=[[0.005,0.63,0],[0.1,0.2,0],[0.9,0.2,0],[0.5,0,0],[0.995,0.63,0],[0.72,0.99,0],[0.5,1,0],[0.28,0.99,0]];verticalLabelPosition=bottom;align=center;verticalAlign=top;shape=mxgraph.kubernetes.icon;prIcon=master" vertex="1" parent="gK9rK_hi8yjl6UL4V2o0-75">
          <mxGeometry x="15" width="35" height="50" as="geometry" />
        </mxCell>
        <mxCell id="gK9rK_hi8yjl6UL4V2o0-79" value="Intranet" style="text;html=1;strokeColor=none;fillColor=none;align=center;verticalAlign=middle;whiteSpace=wrap;rounded=0;" vertex="1" parent="1">
          <mxGeometry x="660" y="550" width="60" height="30" as="geometry" />
        </mxCell>
        <mxCell id="gK9rK_hi8yjl6UL4V2o0-80" style="edgeStyle=orthogonalEdgeStyle;rounded=0;orthogonalLoop=1;jettySize=auto;html=1;entryX=0;entryY=0.75;entryDx=0;entryDy=0;" edge="1" parent="1" source="gK9rK_hi8yjl6UL4V2o0-77" target="gK9rK_hi8yjl6UL4V2o0-83">
          <mxGeometry relative="1" as="geometry" />
        </mxCell>
        <mxCell id="gK9rK_hi8yjl6UL4V2o0-81" value="" style="rounded=1;whiteSpace=wrap;html=1;fillColor=none;dashed=1;" vertex="1" parent="1">
          <mxGeometry x="890" y="630" width="130" height="70" as="geometry" />
        </mxCell>
        <mxCell id="gK9rK_hi8yjl6UL4V2o0-82" value="" style="shape=image;aspect=fixed;image=data:image/jpeg,/9j/4AAQSkZJRgABAQAAAQABAAD/2wBDAAgGBgcGBQgHBwcJCQgKDBQNDAsLDBkSEw8UHRofHh0aHBwgJC4nICIsIxwcKDcpLDAxNDQ0Hyc5PTgyPC4zNDL/2wBDAQkJCQwLDBgNDRgyIRwhMjIyMjIyMjIyMjIyMjIyMjIyMjIyMjIyMjIyMjIyMjIyMjIyMjIyMjIyMjIyMjIyMjL/wAARCAIMAscDASIAAhEBAxEB/8QAHwAAAQUBAQEBAQEAAAAAAAAAAAECAwQFBgcICQoL/8QAtRAAAgEDAwIEAwUFBAQAAAF9AQIDAAQRBRIhMUEGE1FhByJxFDKBkaEII0KxwRVS0fAkM2JyggkKFhcYGRolJicoKSo0NTY3ODk6Q0RFRkdISUpTVFVWV1hZWmNkZWZnaGlqc3R1dnd4eXqDhIWGh4iJipKTlJWWl5iZmqKjpKWmp6ipqrKztLW2t7i5usLDxMXGx8jJytLT1NXW19jZ2uHi4+Tl5ufo6erx8vP09fb3+Pn6/8QAHwEAAwEBAQEBAQEBAQAAAAAAAAECAwQFBgcICQoL/8QAtREAAgECBAQDBAcFBAQAAQJ3AAECAxEEBSExBhJBUQdhcRMiMoEIFEKRobHBCSMzUvAVYnLRChYkNOEl8RcYGRomJygpKjU2Nzg5OkNERUZHSElKU1RVVldYWVpjZGVmZ2hpanN0dXZ3eHl6goOEhYaHiImKkpOUlZaXmJmaoqOkpaanqKmqsrO0tba3uLm6wsPExcbHyMnK0tPU1dbX2Nna4uPk5ebn6Onq8vP09fb3+Pn6/9oADAMBAAIRAxEAPwD3+iiigAooooAKKKKACiiigAooooAKKKKACiiigAooooAKKKKACiiigAooooAKKKKACiiigAooooAKKKKACiiigAooooAKKKKACiiigAooooAKKKKACiiigAooooAKKKKACiiigAooooAKKKKACiiigAooooAKKKKACiiigAooooAKKKKACiiigAooooAKKKKACiiigAooooAKKKKACiiigAooooAKKKKACiiigAooooAKKKKACiiigAooooAKKKKACiiigAooooAKKKKACiiigAooooAKKKKACiiigAooooAKKKKACiiigAooooAKKKKACiiigAooooAKKKKACiiigAooooAKKKKACiiigAooooAKKKKACiiigAooooAKKKKACiiigAooooAKKKKACiiigAooooAKKKKACiiigAooooAKKKKACiiigAooooAKKKKACiiigAooooAKKKKACiiigAooooAKKKKACiiigAooooAKKKKACiiigAooooAKKKKACiiigAooooAKKKKACiiigAooooAKKKKACiiigAooooAKKKKACiiigAooooAKKKKACiiigAooooAKKKKACiiigAooooAKKKKACiiigAooooAKKKKACiiigAooooAKKKKACiiigAooooAKKKKACiiigAooooAKKKKACiiigAooooAKKKKACiiigAooooAKKKKACiiigAooooAKKKKACiiigAooooAKKKKACiiigAooooAKKKKACiiigAooooAKKKKACiiigAooooAKKKKACiiigAooooAKKKKACiiigAooooAKKKKACiiigAooooAKKKKAEooJx1NZV3rUUJKQjzHHp0H41zYnF0cNHnqysi4U5Tdoo1c+tV5b62h/1kqL+NczPf3NxnfKQv8AdTgVXxXzWI4oSdqMPm/8v+CdsMA/ts6Rtcs1OAzN/urTP7ets/ck/wC+a57ik4rzZcR4xvSy+X/BNlgqfmdIuuWbdWZfqtWY7+1l4SZCfTNclgUYHpWtLibExfvxT+9ClgYPZs7cGg1yEF7c25/dytj+63IrXtNcjfCXC+W397+H/wCtXu4PiDDYh8s/dfnt95yVMJUhqtTZopoYMAQQQehFOr3U01ocoUUUUwCiiigAooooAKKKKACiiigAooooAKKKKACiiigAooooAKKKKACiiigAooooAKKKKACiiigAooooAKKKKACiiigAooooAKKKKACiiigAooooAKKKKACiiigAooooAKKKKACiiigAooooAKKKKACiiigAooooAKKKKACiiigAooooAKKKKACiiigBKKilljhQvI6oo5JJxiubvvHmkWjFIWe6cdoRkfnTSb2NaVCrVdqcWzqaK4J/iR83y6W+P9qUZ/lU8HxGtGIFxYzxDuwIYCnys6nlmKSvyfiv8ztvwo7Vmabrunasm6zuUcjqmcMPqOtadI4ZQlB2krMCcCopp44IzJIwVR1Jp0kixRl2ICgZJNctf3z3sueREv3F/qa8nNMzhgqd95PZfq/I2oUHVl5El9qct2Sq5SL+73b61QBpaOlfnuIxVXETc6ju2exCEYLligooornNAooooAKKKKACiiigC3ZahLZsAMvH3Q9vpXS29xHdRCSNtymuONWLO7ks5vMTlT99fUf419BlOczw0lSqu8Py9PI4sRhVNc0dzr6O1QwTpcRLJG2VYZFTV95CanFSi7pnlNNOzFoooqxBRRRQAUUUUAFFFFABRRRQAUUUUAFFFFABRRRQAUUUUAFFFFABRRRQAUUUUAFFFFABRRRQAUUUUAFFFFABRRRQAUUUUAFFFFABRRRQAUUUUAFFFFABRRRQAUUUUAFFFFABRRRQAUUUUAFFFFABRRRQAUUUUAFFFFABRRRQAUUUUAJWbrGr22jae11cngcKg+857Ae9aDMqgknjFeReJNYbWtYeRWP2aEmOFe3u341UY3Z3Zfg/rVWz+Fb/AORBrGt32uTF7qTZCD8kCH5V+v8AeNZ44GBwKKK2PsKdONOKjBWSCiiig0ELtE3nxO0cqcrIhwwP1r2bRJLiXRLOS6ffO0Ks7YxkkV42kRuJooF6yyKg/E17hDGIoUQdAoH5VnUPns9atCPXUyNemIEcIOA2Sw9fSsWr+syb9QYZ4RQP61QHSvy/Oazq42b7O33aGOFjy0kFFFFeYdAUUUUAFFFFABRRRQAUUUUAFFFFAF/Sr02twInP7tzj6H1rps81xXXmun0q7+02YLffThq+x4bx7knhpvbVfqjzMbSt76+ZoUUUV9ceeFFFFABRRRQAUUUUAFFFFABRRRQAUUUUAFFFFABRRRQAUUUUAFFFFABRRRQAUUUUAFFFFABRRRQAUUUUAFFFFABRRRQAUUUUAFFFFABRRRQAUUUUAFFFFABRRRQAUUUUAFFFFABRRRQAUUUUAFFFFABRRRQAUUUUAFFFFABRRRQBheLb02Hhy7lRtsjLsQ+7cV5Io2qB6CvS/iCT/wAI8oHQzpn9a81rWGx9TksEqDl3YUUUVZ7IUUUUAavhq2+1+JrCMjKo5lP/AAEV7Ae9ea/D638zWrq4I4hhCj6sf8BXotzJ5VtJJ/dUmufETUIuT2SPlc4nz4lQXRL8dTk7l/Mu5X9XOKjFA6UV+R1Zuc3N7vU6YqysFFFFQUFFFFABRRRQAUUUUAFFFFABRRRQAVpaHP5d40ZPyuv6is2pLaTy7uJ/7riuzL67o4mE10a+7qZVoc8HE7OigdBRX6mjwQooooAKKKKACiiigAooooAKKKKACiiigAooooAKKKKACiiigAooooAKKKKACiiigAooooAKKKKACiiigAooooAKKKKACiiigAooooAKKKKACiiigAooooAKKKKACiiigAooooAKKKKACiiigAooooAKKKKACiiigAooooAKKKKAOd8Z2rXfhe6CAlogJAAMn5Tz+ma8oWRH+6wJ9M817uRkYPSsy88P6Vfg/aLGFye+zB/MVcZWPWy/M1hoOnON1e547RXo118PdNl5tZp7c+gbcv5GsO6+H+qRc21xBOPRgUP+FWpI9unmuFqfat6/1Y5Wir91oerWWTPp0wUfxIN4/MVnF1UkN8pHUMMVR3QqQmrwd/Q9E+HVvs067uCOZZtoPsoxXR6zJ5enSDPLkLVPwha/ZfDFkpHzOnmH6tz/AFp3iCT5IY/Ulj+FeNnNb2WDqS8rffofI1Ze1xrfn+RiUUUV+YnpBRRRQAUUUUAFFFFABRRRQAUUUUAFFFFABRnGD70Uh6U47oTO0jO6NT6gGn0yEYiQf7Ip9frVP4Fc+ee4tFFFaCCiiigAooooAKKKKACiiigAooooAKKKKACiiigAooooAKKKKACiiigAooooAKKKKACiiigAooooAKKKKACiiigAooooAKKKKACiiigAooooAKKKKACiiigAooooAKKKKACiiigAooooAKKKKACiiigAooooAKKKjkkSKNpJGCooyWJwAKAHFsDJOAOtcdrXj20sna305BdTLwXziNT9e/4VznibxbNq8j2tm7RWAOCRw0v19F9q5kAAYHAr18Nlya5qv3f5nzmOzd3cKH3/AOR0H/Ca699oMn2uMA/8s/KG0f1/WtW0+I1ymBeWMcg/vQvg/ka4qiu6WDoSVnFHlQzDEwd1N/PX8z1O18eaNcYEjy27HtKnH5jNbltqdleqDbXcMuf7rgmvEKQDa25SVb1U4Ncs8spv4W1+J30s8qx+OKf4HvY596p3elWF8pW6tIZQeu9ATXkdr4i1mywIdRl2jokh3j9a3LT4h6lFgXNrDOO5QlT/AIVyTy6tH4WmelRzyje7vF/12PR440hjSKNQqKAFA7CsDW5N2obeyKB+dauj6pDrOmQ3sIKq45U9VPcGqeu2vyrcqOV+V/p2r5XiGhUng5JfZd36I97BVYyqKV7p7fMxaKKK/Oj3AooooAKKKKACiiigAooooAKKKKACiiigAJxT4Y2lnjRQSWYcCiGF7iQRxruc/kPc10lhp8dnHn70h+8x/p7V6+V5XVxk+baC3f6I5q9eNNW6l8cKBS1DJPDEyLJKiM5wgZgCx9B61NX6QlZHi3CiiigAooooAKKKKACiiigAooooAKKKKACiiigAooooAKKKKACiiigAooooAKKKKACiiigAooooAKKKKACiiigAooooAKKKKACiiigAooooAKKKKACiiigAooooAKKKKACiiigAooooAKKKKACiiigAooooAKKKKAGjHFeeePdfMk39j2zkRrhrlgep7J/U/hXb6pfJpum3F2/KwoWx6nsK8TklknleeZt0srF3Pua9LLaCnJzl0/M8TOcU6dNUo7y39BtFFFe4fLBRRRQAUUUUAFFFFAHYeANVNtqEumSNiO4/eRZ7OOo/Efyr0aWFZ4WjblWGDXhkM8trcRXMJxLC4dD7ivbNMvo9T063vIj8kqBvoe4rwc0wyvzW0loz6nJMVzU3Sb1jt6HLyxNDM8b/AHkODTa2NettrpcqOD8r/wBKx6/HcxwrwuJlSey29Oh9xQqe0gpBRRRXEbBRRRQAUUUUAFFFFABRRRQAhNWLW0lvJNsYwB95z0FPsbCS9k4ysQPzP/QV08FvHbxiONQqivoMpyWeKaq1dIfn6HHiMUoe7HchtLOKzjCoOT95j1JrK8UeKrHwxY+bcHzLiTIhgU/NIf6D3qn4v8a2nhm38lNs+oyLmOAH7v8AtN6D+deI3+oXeqX8t7eztNcSH5mPYegHYe1fo+CwMVFJK0Vsj5jHY/2bcY6y/Isa1rd/4g1E3uoTFnH+rjQkLEPRf8e9b3hz4h6rojpDdu9/ZDgpIf3iD/Zbv9DXIUV60qMJR5WtDwY4mrCfOpan0lpGs2OuWCXthOJYm4PYqfQjsa0O3tXzn4c8RXfhrU1vLUlo2wJ4M8Sr/j6Gvf8AStTttX06G+tJN8My7lPceoPuK8mvQdJ6bH0ODxaxEddJIv0UUVznaFFFFABRRRQAUUUUAFFFFABRRRQAUUUUAFFFFABRRRQAUUUUAFFFFABRRRQAUUUUAFFFFABRRRQAUUUUAFFFFABRRRQAUUUUAFFFFABRRRQAUUUUAFFFFABRRRQAUUUUAFFFFABRRRQAUUUUAFFFFAHHfEO5MWhR24P+vmVT9Byf5V5pXe/Ekny9OHbe5/SuCr6HL42orzufHZvJyxTXawUUUV2nmBRRRQAUUUUAFFFSQwy3M6QQRtJLIcKi9TQ5W3BRbdkMVWeRY41Z5HO1UUZLH0Fer+D9IvNH0fybyQFncyLGOkee2e9Q+GPCcOjRi5uds1845fsg9F/xrdv7+3020e5upBHGg5J7+w9TXhY3F+2fs4bH1GW4D6svb1XZ2+5eZZeNZEKOoKnqDWTdaHG2Xt2Mbf3TyK5dPiBcC+ZpLIG0J+RQ2JFHqex+ldTpfiHTtWwLacCXvFIdrj8K8bF5bSxEbVoX8+q+Z6mGzSlKVqc9e3cx7i0ntj+9jIH94cioK7UqGGCAQazrrRrebLR5if1Xp+VfJ4zhmcfew8r+T3+89qnjk9Jo5ziirVzplzbZLJvT+8nNVa+arYerQly1ItPzO6E4yV4u4UUUViWFFFFACHjoK0NP0x7wiSXKQ/q309qm07SjJtmuVwnVYz39zW+AFGBgAV9Vk+RObVbELTou/r5HnYnF8vuw37jY40ijCIoCgcAVwnjT4gRaKX07SmSbUcYdzykH19W9vzrM8bfEQoZdK0KX5xlZ7tei+qp6n37V5d68kknJJOST6mv0PC4NJJyWnRHy2OzDlvCm9erJJ55ri4kuJ5Xmnkbc8jnLMfeo6KK9Q8Fu+rCiiimAV3fwx8RHTtZOkTt/o14cxZPCS4/9mA/MCuEpySyW8iTxNtliYSIR2YHIrKrTVSLizbD1XSqKS6H1DS1R0m+TU9JtL1PuzxLIPxFXa8Jqzsz61NNXQtFFFIoKKKKACiiigAooooAKKKKACiiigAooooAKKKKACiiigAooooAKKKKACiiigAooooAKKKKACiiigAooooAKKKKACiiigAooooAKKKKACiiigAooooAKKKKACiiigAooooAKKKKACiiigAooooA4j4kQl9LtJwP9XPgn2YYrzqvZPEunf2roF1bKMyFN0f8AvDkV40DkA4we49K93LZ81Ll7M+Tzqk41+fpJfkLRRRXonjhRRRQAUUVc0vS7zWL1bW0TLdXkb7sY9T/hUzmoK72KhCU5KMVdsis7O51G7S0s4jJO/QdlHqT2Feq+HfDNvoNvu4lu3H7yUj9B6Cp9D8P2uh2nlQDdK3MkrD5nP+HtRrev2uiW26U75W4jiU/M5/oPevCxWLlWfJDb8z6fBYGnhIe1rP3vy/4JY1XVrTSLNri7favRVH3mPoBXl2sazd63d+dcnZGp/dQg8IP6n3qLUdRutWvTdXb7n6Ig+7GPQf41UqadJQ1e55ePzGWIfLHSH5+oUY5BGQR0I4IoorU8zY39L8X6ppxVZXF3CP4ZD8wHs3+Ndlpfi7S9TKx+b9nnP/LKXj8j0NeXUhUMMEAj3rKVKMj0MNmlehpfmXZ/5nuGAR2qjc6Vb3OSV2v/AHl4rzLTfEWqaSQsFwZYR/yxm+ZfwPUV2Wl+ONPvNsd5mzmPHz8oT7N/jXDicDCrHlqRUkfQYTOKM3vyy8/8x9zpNzb5ZV81fUdfyqgc5IPBHUGuzjdZUDo6up5BByDUNzYW90P3iDP94cGvlMZw1F3lh5W8nt959DSx7+0jku+ByT0Arc03ScYnuV+bqqHt9ferNnpUNpIZMl2/hLDpVi+vrXTbOS7vJkht4xud3OAK0yrIPZSVTEK8ui3FicZdWjt3JpJY4ImkkdURRksxwAPUmvH/ABt8Qn1RpNN0aRo7PlZbgcNL7L6L796zPGHja58SzNb22+30tT8sfRpv9p/b0FcnX3eGwnL709z5TG5jz3p09u4AADAGBRRRXoHjhRRRQAUUUUAFFFFAHunwzuDP4HsgxyYmeP8AJjXXVxXwsQp4JiY/xzyMPz/+tXbV4Ff+JL1PrsK70Y37IWiiiszcKKKKACiiigAooooAKKKKACiiigAooooAKKKKACiiigAooooAKKKKACiiigAooooAKKKKACiiigAooooAKKKKACiiigAooooAKKKKACiiigAooooAKKKKACiiigAooooAKKKKACiiigAooooAbjNeTeMNFOlau08a4trpi4I6K/8AEP6161VDVdMt9WsJLS5GUccEdQexHvXRhMR7Cpfo9zhx+DWJpcq3Wx4nRV7V9Iu9EvTbXa5B/wBVKB8sg9vf2qjX0sJqa5o7Hxc4ShJxkrNBRRWz4e8OXOv3HBaOzQ4kmx1/2V9T79qVSpGEeaTsh0qU6s1CCu2Q6Jod1rt35NuNkKH97ORwg9B6n2r1fSdJtdHs1trVML1Zj1Y+pNS2Gn22mWkdtaxrHEgwAO/ufU1ieJfFUWkIba1Cy3zDhf4Yx6t/hXz+IxM8RLlW39bn1WHwtHAUvaVX73f9EWfEPiO30SDYuJbtx+7iz0929BXmV1c3F9dPdXMplmfqx7D0A7CmSSSzzPNNI0s0hy7t1JplVTpqCPCxuOnipa6RWy/rqFFFFaHAFFFFABRRRQAUdeKKKALmn6rf6S+6yuXjXvGfmQ/h/hXY6X48t5isWpxfZ3Jx5qcofr3FcFSEAgg9DUSpxludmHx9eh8L07PY9wDZ5HIrxn4qSan/AMJBHBcyk6eUD2yLwuf4s+rf0r0DwXq/9oaT9lmbNxakI2erL/Cf6fhTPHvh86/4dlEK5u7c+dB7kdV/EVhRkqdX3j6eq/rWF56b31/4B4PRSA7gD69qWvbPmgooooAKKKKACiiigApGO1SfQZpa2PC+jPr3iS0sQpMW7zJz6Rryfz4H41M5KKbZdODnJRW7PbPBunnTfCOm2zLtcQh2Hu3J/nW/TVUKoUDAAxinV8/KXM2z6+EeSKiugtFFFIsKKKKACiiigAooooAKKKKACiiigAooooAKKKKACiiigAooooAKKKKACiiigAooooAKKKKACiiigAooooAKKKKACiiigAooooAKKKKACiiigAooooAKKKKACiiigAooooAKKKKACiiigAooooAKKKKAKGo6baaraNbXcSyRt2PUH1B7GvOtZ8D3+ns0ljm8t+oX/loo+nevU+3FHauihiqlH4duxx4rAUcSvfWvfqeUeHfCNzq83m3iSW9khwwYbXkI7D0HvXqFvbQ2dukEEapEg2qqjAAqYkAZ6VwnifxcxaSw0yTkfLLOp6f7K+/vVVa1TEy12OaNPD5bS5nq397LXibxatm72OnMr3PSSXqsX+LfyrgSWZmd2ZnY5ZmOSx9SaaAAMClrWEFFWR83i8XUxM+ae3RdgoooqzlCiiigAooooAKKKKACiiigAooooAv6JqjaPq0N5k+VnZMPVD1/Lr+FevRukiq6nIIyPcV4lXofgXVvtentp8rZltuFz1MZ6fl0rnrwuuZHu5NiuWboS2eq9TzT4gaB/YXiWSSJNtpe5mix0Vv41/Pn8a5WvorxD4csfEunraXocKjh0dDhkb2rgr34QyrltP1UN6JcR/1H+FdVDFw5EpvU3xeX1PaOVNXTPMqK6e/+H/iWwyTp/wBoQfxW7hv0ODXOXNvcWb7Lq3mgb0ljK/zrrjUjL4Xc82dGpD4k0R0UAgjIII9qK0Mwoop0cbzSpDFG8krnCRoMsx9AKASuNClsKqlmY4VQMkn0Fe5eAPCx8PaSZrpQdQugGl/6Zr2T8O/vWX4F8Af2Y0eq6sitfYzFD1EPufVv5V6LXlYvEqfuQ2PfwGCdP95U36eQtFFFcJ6wUUUUAFFFFABRRRQAUUUUAFFFFABRRRQAUUUUAFFFFABRRRQAUUUUAFFFFABRRRQAUUUUAFFFFABRRRQAUUUUAFFFFABRRRQAUUUUAFFFFABRRRQAUUUUAFFFFABRRRQAUUUUAFFFFABRRRQAUUUUAFFFFABRRRQBma/N9n0G+mBwVibB+orx5BiNQPSvWPFpx4Wvsf3AP1FeUjoK68P8LPl89f72K8v1CiiitzxAooooAKKKKACiiigAooooAKKKKACiiigArsvh5b7rq+uiPuqsSn9TXG16P4Ct/K8P+d3nlZ/w6D+VZVnaB6eU0+fExfa7/Q6K9vIbC1e4mJEaDkgZNVbbXNNuseVdx5P8JOD+tZ3jCfZpccQPMsgH4DmuLKhuoB+or5zFY+dCtyRSasfVTqOLsj1VWVhkEEetRzW0FwhSaFJEPUOoIrzOG4uLY5guJov91zj8q07fxNqkHDSxzD0kXn8xRTzem/ii1+Ie0T3RsX/gDw3qGWk0yOJz/HATGf0rmb74QWzZOn6rPEeyzqHH58Guht/GS8C5tGX1aNs/oa1bfxHpdyQBciNj/DJ8v869KjmkH8M/v/4JlPD4epvFfkeaWvwl1V7opd6hbx24P34lLMw9geleg+HvCGk+HI82cG+4Iw1xJ8zt+PYewroe1A6V1VMRUqKzY6ODo0neK1FooorE6gooooAKKKKACiiigAooooAKKKKACiiigAooooAKKKKACiiigAooooAKKKKACiiigAooooAKKKKACiiigAooooAKKKKACiiigAooooAKKKKACiiigAooooAKKKKACiiigAooooAKKKKACiiigAooooAKKKKACiiigAooooAxfE8Zk8NagoGT5RP5c15MvKg+1e13luLmzngPSSNk/MYrxQK0eY24ZCVP1Brqw70aPmc8hapGfdW+7/hxaKKK6DwgooooAKKKKACiiigAooooAKKKKACiiigBGO1GPoM16/4fthZ6DYwYwVhXP1Iya8ltoDdXlvbjrLKqfma9qVQqhR0ArnxD0SPfyOn705+iOP8AGU269tYB/Ahc/jxXOVp+IZvP165OciPbGPwHP86zK+Ixc+evKXn+Wh7M3eTCiiiuckKRhlTS0HofpSA9J0qc3Ol20x6tGM/WrtZnh8FdCswf7n9a06+xotunFvsjsjshaKKK1GFFFFABRRRQAUUUUAFFFFABRRRQAUUUUAFFFFABRRRQAUUUUAFFFFABRRRQAUUUUAFFFFABRRRQAUUUUAFFFFABRRRQAUUUUAFFFFABRRRQAUUUUAFFFFABRRRQAUUUUAFFFFABRRRQAUUUUAFFFFABRRRQAUUUUAFFFFADeMV5N4psTYeI7pAMRz/vk49ev6161XJeOdKN3pi3sKZmtCWIHUofvf41rSlaR5ma4d1qDa3jqed0UZBGRyKK7T48KKKKACiiigAooooAKKKKACiiigAooooA2fClv9p8TWYIyI90h/Af/Xr1ZiFUk9AM1598P7cvqN5ckcRxhAfcnP8ASu11e4+zaTdTA4KocfXpXBi5qN2+iPrMnhyYbm7ts86nl8+5mm/56SM360ykUYRR6Clr4dtt3Z1BRRRQAUqxtNIkSDLyMFUe5pK6HwtphnuP7QlX91HkRZ/ibu30FbYei6tRRXUcVzOx19vELe2iiXpGgX8hU9FFfWpJKyOwKKKKoAooooAKKKKACiiigAooooAKKKKACiiigAooooAKKKKACiiigAooooAKKKKACiiigAooooAKKKKACiiigAooooAKKKKACiiigAooooAKKKKACiiigAooooAKKKKACiiigAooooAKKKKACiiigAooooAKKKKACiiigAooooAKayhlKsAQRgg96dRQB5J4j0RtE1Moin7JMS0Lenqv4fyrIr2LVdMt9WsHtLlcq3KsOqt2I968o1PTLnSL1rW6XnrHIOki+o/wrspVOZWe58jmeAdCfPBe6/w8ipRRRWx5QUUUUAFFFFABRRRQAUUUUAFISACT0FL0GTXUeFPDTahKmoXiFbVDuiRh/rD6n/Z/nUykoq7N8PQnXqKEdzofBWmzWOjtLOmyS4fzAD1C44z/AD/GtPXrKe/0qSC2K+Y2OGOMgHpWqBgUV51ZKqnGXU+2o0I0qaprZHlksckEhjmjaNx1Vxg0yvTrmytrtNlxCki/7QzWRL4S01ySoljz2V+P1rwKmVVU/caa+4l0X0OIozyB1J6Ada7VPCGng/NJO/sX/wDrVp2mkWFlzBbIrf3sZP5mphlVVv3mkCpS6nKaT4ZnvGEt6rQ2/Xyzw0n19BXaxRpFEI0UKijAAGABUlFexh8LChG0d+5tGCjsLRRRXUUFFFFABRRRQAUUUUAFFFFABRRRQAUUUUAFFFFABRRRQAUUUUAFFFFABRRRQAUUUUAFFFFABRRRQAUUUUAFFFFABRRRQAUUUUAFFFFABRRRQAUUUUAFFFFABRRRQAUUUUAFFFFABRRRQAUUUUAFFFFABRRRQAUUUUAFFFFABRRRQAUUUUAJ3rO1TSbXWLRre6TI6qw4ZT6g9q0e1FNO2qInCM4uMldM8j1rw/e6HIWlUzWuflnQcD2Ydj+lZXUZHSvbmRZEKuAynggjIrlNV8C2VyWlsHNpKedoGUJ+nb8K6YV1tI+dxeTST5qGq7f5HnlFal/4b1fTiTLZtLGP+WkHzj8uorKLANtPDeh4Nbpp7Hi1KU6btNWfmLRRmimZhRSEgdTUkEM104S2hkmY9BGpNBSi27IZQMl1RQWdjhVUZJ+grpdO8EaneFXumW0iPUH5nP4dBXaaV4b07SEzBDumI+aWTlz+Pb8KylWjHzPRw2VVq2slyrz/AMjmPD/gt5WW71ZMIDlLb193/wAK71VVUCqAAOw7UpAwKOcVyzm5O7PpsLhKeHhywXz6sdRRRUHUFFFFABRRRQAUUUUAFFFFABRRRQAUUUUAFFFFABRRRQAUUUUAFFFFABRRRQAUUUUAFFFFABRRRQAUUUUAFFFFABRRRQAUUUUAFFFFABRRRQAUUUUAFFFFABRRRQAUUUUAFFFFABRRRQAUUUUAFFFFABRRRQAUUUUAFFFFABRRRQAUUUUAFFFFABRRRQAUUUUAFFFFABRRRQAUUUUAJ1FU7nTbK8/4+LWKTP8AfQGrlJ+NO9iZQjJWkrmG/hDQpOTp6Kf9liP5GmDwXoYOfsjH2Mjf410GKPxp88u5g8JQf2F9xjQeGdGt23R6dBn1Ybv51qRQRQLtjjRF9FUAVLRSbb3NIUqcPhil6IWiiikahRRRQAUUUUAFFFFABRRRQAUUUUAFFFFABRRRQAUUUUAFFFFABRRRQAUUUUAFFFFABRRRQAUUUUAFFFFABRRRQAUUUUAFFFFABRRRQAUUUUAFFFFABRRRQAUUUUAFFFFABRRRQAUUUUAFFFFABRRRQAUUUUAFFFFABRRRQAUUUUAFFFFABRRRQAUUUUAFFFFABRRRQAUUUUAFFFFABRRRQAUUUUAFFFFABRRRQAUUUUAFFFFABRRRQAUUUUAFFFFABRRRQAUUUUAFFFFABRRRQAUUUUAFFFFABRRRQAUUUUAFFFFABRRRQAUUUUAFFFFABRRRQAUUUUAFFFFABRRRQAUUUUAFFFFABRRRQAUUUUAFFFFABRRRQAUUUUAFFFFABRRRQAUUUUAFFFFABRRRQAUUUUAFFFFABRRRQAUUUUAFFFFABRRRQAUUUUAFFZmra9pOhRRS6tqFtZRytsRp5AoY4zgZqlYeNPDOqX0VlY65YXF1LkRxRThmbAycD6UAdBRRRQAUUUUAFFFFABRRRQAUUUUAFFFFABRRRQAUUUUAFFFFABRRRQAUUUUAFFFFABRRRQAUUUUAFFFFABRRRQAUUUUAFFFFABRRRQAUUUUAFFFFABRRRQAUUUUAFFFFABRRRQAUUUUAFFFFABRRRQAUUUUAFFFFABRRRQAUUUUAFFFFABRRRQAUUUUAFFFFABRRRQAUUUUAFFFFABRRRQAUUUUAFFFFABRRRQAUUUUAeI/tJ/8AIs6L/wBfjf8AoBryv4MD/i6+i/70n/otq9V/aT/5FnRf+vxv/QDXlXwY/wCSr6L/AL0n/otqAPsKiiigAooooAKKKKACiiigAooooAKKKKACiiigAooooArXt7a6dZyXd7cR29tEN0ksrBVUepJrGHjvwkzKq+JNLJYgAC6Tknp3rN+LAz8LfEGf+fb/ANmWvj/TP+QrZ/8AXdP/AEIUAfelFNT7g+lOoAKKKKAPjfxB458V23iTVIIfEeppHHdyqqi5YAAOcDrX0X8H9QvdU+G2n3moXU11cu8u6WZyzHDkDk1weqfs7zajql5er4jRDcTvLtNqTtDEnH3vevU/Anhd/B3hK10SS7W6aBnPmqmwHcxPTJ9aAOmooooAKKKKACiiigAooooAKKKKACiiigAooooAKKKKACiiigAooooAKKKKACiiigAooooAKKKKACiiigAooooAKKKKACiiigAooooAKKKKACiiigAooooAKKKKACiiigAooooAKKKKACiiigAooooAKKK5zxd4y0jwVpBvtVnwTkQwKcyTN6KP5noKAOjor5W8SfHnxTq8rppTR6Ta5+URKHkI93I6/QCuKn8c+K7ly0viPVGY+l04/kaAPt6iviyw+JnjPTXDW/iO/ODnbLJ5in8GzXqngv8AaDd7iOz8WW8ao5Ci+t1xt93T09x+VAHv9FQwTxXMEc8EiyRSKHR1OQwPIIPpU1AHiX7Sf/Is6L/1+N/6Aa8q+DH/ACVfRf8Aek/9FtXqv7Sf/Is6L/1+N/6Aa8q+DH/JV9F/3pP/AEW1AH2FRRXkfx91TUNJ8KabNp19cWkrXu1mglKFhsbg460AeuUV8Pf8Jt4q/wChi1T/AMC3/wAaP+E28Vf9DFqn/gW/+NAH3DRXw+PG/ioHP/CRap/4Fv8A41taV8XPG+kyh012e5QdY7oCVT+fP5GgD7GorzP4a/Fm08bsdPvYVstXRd3lq2UmHcpnnI7j+demUAFFFcZ44+JGi+BbQG9Zri+kXMNnEfnYepP8K+5/DNAHZ0V8n698dvGOrSMLK4i0u3J4S2QFvxZsn8sVysnxA8XTPvfxLqhb2uWH9aAPtqiviuL4k+NYPueJtS/GYn+dXofi/wCPLc8eIZ39pI0b+a0AfY1FeNfBTx74i8Y6hqsGtXiXEdtDG0e2FUIJJB5AGeldT8WvEmp+FPBDanpEyw3QuY49zRhxtOc8HigCz8WP+SW+IP8Ar2/9mFfH2mf8hWz/AOu6f+hCuw1f4u+Mdd0m50zUL+GS1uU2SqLZFJH1A4riYZngmjmjOHjYMp9CDkUAffCfcH0p1fJP/C9vHv8A0E7f/wABI/8ACk/4Xr49/wCgnB/4CR/4UAfW9FeVfBbxprnjSw1abW7mOZraWNYtkSpgEEnoOegr1WgAor5X1v40+OLDXtRtINSgEUFzJGg+yxnChiB2r3b4Ya9qPibwFY6rqsyy3kzSB3VAgIDkDgcdBQB2VFFRSSpDG8kjqkagszMcAAdSTQBLRXg/jX9oGO1uJLHwrbxz7SVN9OCUJ/2F7j3P5V5VqHxV8b6k7GXxFdxhv4ICIgP++QKAPs2iviKPx34tik3p4k1QN6/anP8AWtiy+MPjuybK6/NKPSeNJP5igD7Foryr4N+Pdd8b2+qvrP2ZhaGNY2hj2Elt2c847CvVaACiiigAooooAKKKKACiiigAooooAKKKKACiiigAooooAKKKKACiiigAooooAKKKKACiiigAooooAKKKKACiiigAooooAKKKKACiiigAooooAKKKKACiiigAooooAKKKKAK95dw2FlPd3LhIII2kkY9lAyTXxf468XXnjTxPc6pcswhyUtoSeIoh0A9+59ya+jvjjrDaX8M7uKN9sl9KlsPXaTlv0Uj8a+afBWir4i8aaRpMgzFcXKiQf7A5b9AaAPUfhn8E4tb0+DXPEjTR2kwD29nGdrSL2Zz1APYDnvmvZLX4b+DbOMRw+G9OwBjLwhyfqWya6dI0ijWONQqKAqqBgADtUlAHA658HvBet2zxjSY7CYj5Z7P92yn1x0P4ivmjx34KvvAuvtp103mwuN9tcAYEqf0I6EV9q15B+0Lo8d54Ft9S2/vrG6XDf7D/ACkfnt/KgDD/AGfPGc04ufCl5KXWJDPZFjkqufnQe3OR+Ne918W/DTU20j4jaFdBiqm6WJ/dX+Q/zr7SoA8S/aT/AORZ0X/r8b/0A15V8GP+Sr6L/vSf+i2r1X9pP/kWdF/6/G/9ANeVfBj/AJKvov8AvSf+i2oA+wqytb8PaR4jt47fV7CG9hifzESUZCtjGfyNatFAHI/8Kv8ABH/Qs6f/AN+6P+FX+CP+hZ0//v3XXUUAcgfhf4IIx/wjOn/9+/8A69eX/FD4MabY6Hc674aje3a1XzJ7TcWVkHVlzyCOuPSvf6p6pEs+lXkLgFJIHVge4KkUAfDek6ncaNq1pqdo5S4tpVlRgccg5x9D0r7k0y+j1PSbO/ix5dzCky49GAP9a+D3G12HoSK+0Pho5k+Gnh1mOT9iQfkMUAdHfXkdhp9zezHEVvE0r/RQSf5V8PeItcvPEmvXerXzl57mQvyeFHZR7AYH4V9leOFZ/AmvqgJY2E2Mf7hr4goA90+G3wRtda0m31rxLJKIbhQ8FnE2wlD0Z2689gO3evVofhN4FgjCL4ctWx3csx/MmtvwpeW2oeEtIurNkaB7SPYV6DCgEfgRj8K2qAOIk+EXgOb73hy2X/cd1/k1Z8/wO8BzjjS5oj/0zuXH8zXo9FAHH+EPhxoPgi7urnRvtQa5RUkE0u8YByMcVp+KfC2m+MNHOl6qJTbGRZf3T7DkZxz+NbtFAHhfjr4NeEfD3gjVdWsY737Vaw74y9xkA5A5GPevn2yiS4vreGTOx5VVsdcEgV9h/Fj/AJJb4g/69v8A2YV8faZ/yFbP/run/oQoA+oR8AfA5APlahz/ANPX/wBal/4Z/wDA/wDzz1D/AMCf/rV6gn3B9KdQBy/g/wAC6L4Ihu4tHWcLdMrSedLv5UEDHp1NdRRRQB8LeKP+Rr1j/r9m/wDQzX1L8D/+SU6X/vzf+jGr5a8Uf8jXrH/X7N/6Ga+pfgf/AMkp0v8A35v/AEY1AHoleG/tBeMJbCwtvDFnKUe8XzrsqcHygcKn0JBJ/wB33r3Kvjv4w6k2pfFDWWLZW3kW3T2CKAf1zQBzGhaHqHiPWbbStMhM13cNtUdAB1JJ7ADkmvozw5+z/wCG9OgjfWnm1O66uN5jiB9AByfxNc5+zfokbyazrkiAyJttYiR0z8zY/Ja+gqAOMX4U+BVQKPDdmQPXcT+eaq3Hwa8BXAP/ABIUjz3jmkX/ANmrvaKAOZ8JeBtF8Ex3cejRzIl0ytIsspfBUEDGfrXTUUUAFFFFABRRRQAUUUUAFFFFABRRRQAUUUUAFFFFABRRRQAUUUUAFFFFABRRRQAUUUUAFFFFABRRRQAUUUUAFFFFABRRRQAUUUUAFFFFABRRRQAUUUUAFFFFABRRRQAUUUUAeG/tJ3DLoehWwPyvcyOR/uqAP/QjXlXwn1fStB+INlqWsXC21pCkn7xlJAYoQOgJ716b+0sh+x+Hn5x5kw/RK8S8N+HNS8V6xHpWlRpJdurOqu4UYUZPJoA+rf8AhcngH/oYIv8AvzJ/8TR/wuTwD/0MEX/fmT/4mvBv+FEeO/8Anwtf/ApKP+FEeO/+fC1/8CkoA95/4XJ4B/6GCL/vzJ/8TXIfE34j+DvEXw91TT9P1mOe7kCGKIROCxDg9xjoDXmv/CiPHf8Az4Wv/gUlH/CiPHf/AD4Wv/gUlAHCaCzJ4i0x1+8t3ER9d4r7ur5b0P4I+NLPX9Nurmzthbw3UUkpFypwoYE8fQV9SUAeJftJ/wDIs6L/ANfjf+gGvKvgx/yVfRf96T/0W1eq/tJ/8izov/X43/oBryr4Mf8AJV9F/wB6T/0W1AH2FRRXg/xz+I13p9wvhXSLhoXeMPezRnDYbpGD2yOT9QPWgD0LxD8VfB/hqVoLzVVmuVOGgtV81lPvjgfia4m6/aQ0NCRa6Jfzehd0TP8AOvBvDXhjVfFmrppuk2/mzMNzMThY17sx7CvZNO/Zsbyw2p+IQsh6rbW+QPxY8/lQBFc/tK3Jz9l8NxL6ebck/wAlFY15+0R4nuY2jh07TIAQR9x3P6tXdWv7OXhqIg3OqanP7Aog/wDQTWr/AMKM8DWdvLKbK6nZEYjzbpuw9sUAfKTMWYsepOa+z/hh/wAkx8O/9eaV8YyACVwOACcV9nfDD/kmPh3/AK80oA6ieCO6tpbeUbo5UKOPUEYNfFXjLwlfeDvEdzpd5E4VWJt5cfLLHnhgfp19DX23WVrnh/SfEdibLWLCK7g6gSLyp9VPUH6UAfIPhX4i+JPBuY9KvsWxbLW0y74yfXB6H6Yr0/Sv2k5lwur6Aj+r2kxX/wAdbP8AOtfWv2c9HuWaTRtVubInpFOolQfjwf51xeofs7+LLbJs7vTrxR0AkaNj+BGP1oA9P0v4+eDL8otzLeWDN18+HKj8VzXe6R4h0fX4vN0nU7W8Tv5MgYj6jqK+QNZ+G3i/QQ73+hXQiXrLEvmJ+a5rnrO9u9Mu0ubK5ltriM5WSJyrKfqKAPvWivJvg58S7nxjaTaTq7htUtEDrMAB58fTJH94HGcdc/WvWaAOM+LH/JLfEH/Xt/7MK+PtM/5Ctn/13T/0IV9g/Fj/AJJb4g/69v8A2YV8faZ/yFbP/run/oQoA+8k+4PpTqan3B9KdQAUUUUAfC3ij/ka9Y/6/Zv/AEM19S/A/wD5JTpf+/N/6MavlrxR/wAjXrH/AF+zf+hmvqX4H/8AJKdL/wB+b/0Y1AHolfDnjGdrnxprkzHLPfTE/wDfZr7jr4X8Up5fi3WE54vZhz/vmgD6Q/Z7t1i+HEkoHzS30pJ+gUf0r1ivK/2fyD8M1HcXswP/AI7XqlABRRRQAUUUUAFFFFABRRRQAUUUUAFFFFABRRRQAUUUUAFFFFABRRRQAUUUUAFFFFABRRRQAUUUUAFFFFABRRRQAUUUUAFFFFABRRRQAUUUUAFFFFABRRRQAUUUUAFFFFABRRRQAUUUUAeMftG2TS+D9MvFXP2e92k+gZD/AFUV5F8Hb8af8UtGZjhZnaA/8CUgfrivpX4m+H28S/D7VbCJd1wsfnwj1dDuA/EAj8a+N7S5msb2C7t3Mc8EiyRsP4WU5B/MUAfe9Fcl4E8c6f430OK7tZEW7VQLm2z80T9+P7p7GutoAKKKKACiiigDxL9pP/kWdF/6/G/9ANeVfBj/AJKvov8AvSf+i2r1X9pP/kWdF/6/G/8AQDXlXwY/5Kvov+9J/wCi2oA+wq+KviRdve/EfxBM5JP2x0GfRTtH6CvtWvi74n2L6f8AErXoXUruumlX3V/mH86APbf2ddMit/Bt/qQUefc3hjZsc7UUYH5sa9krw39nPX7eTRdR0F3VbiKf7TGhPLIwAOPoVH517lQAVXvf+PG5/wCuTfyNWKzda1Kx03S7ia/vLe1i8thvmkCDp70AfC0v+tf/AHjX2b8MP+SY+Hf+vNK+MZMGViDkbjzX1n8JvFuhX3gbSdNi1O3W9tIBFLbyuEcMPQHqPcUAek0U0EMAQQQehFOoAKKKKACvnj9oTwnYWX2DxDZW6Qz3EpguRGuBIcZViPXgjPfivoevnb9oTxbZahJYeHbKZJpbWQz3TI2QjYwq/XBJPpxQBxXwVvHtPippIQ4E/mQt7goT/MCvr6vkb4IabJf/ABR06VFJS0SSdz6DaVH6sK+uaAOM+LH/ACS3xB/17f8Aswr4905gup2jHoJkP6ivtD4g2Tah8PtetkGWeykIHuBn+lfE6sVYMDgg5BoA++kOY1PqBT6yPDepw614a03UYJA8dxbI+R64GR9QcitegAooooA+FvFH/I16x/1+zf8AoZr6l+B//JKdL/35v/RjV8teKP8Aka9Y/wCv2b/0M19S/A//AJJTpf8Avzf+jGoA9Er4r+JVn9h+JHiCDGB9sdwPZjuH86+1K+YP2hNBew8Z2+ron7jUIACwHHmJwf020Adt+zjqAm8J6rYEjdb3gkA9nUf1U17TXyH8IfG0Xg3xaWvnK6dfIIbhsZ8s5yr/AEBzn2Jr61triG7t0uLeZJoZBuSSNgysPUEUAT0UUUAFFFFABRRRQAUUUUAFFFFABRRRQAUUUUAFFFFABRRRQAUUUUAFFFFABRRRQAUUUUAFFFFABRRRQAUUUUAFFFFABRRRQAUUUUAFFFFABRRRQAUUUUAFFFFABRRRQAUUUUAFFFFABXzR8XPhPeaZqFz4h0C1afTbljJPbxLlrdjySAOqE88dPpX0vRQB8FWV/eaZdrc2VzNbTp92SFyjD8RXYW3xg8d2sexfEEzgdPNjRz+ZGa+mdc+G/hHxDIZtQ0O2M7dZogYnP1K4z+Nc63wE8DFiRa3ij0F01AHhx+NXj4jH9t4/7d4//iary/F7x5NnPiK4Uf7EaL/Ja98i+BPgSPk6fcyf790/9DWtbfCXwLaj5PDtq5HeUs/8zQB5L8FvF/iDXfiJ5Gr6zeXcRs5SI5ZSV3Arzjp619H1lad4d0TR236bpNlaPjbvhgVWx6ZAzWrQB4l+0n/yLOi/9fjf+gGvKvgx/wAlX0X/AHpP/RbV9W614d0fxFDFDq+nwXscLb41mXIU4xkVn6f4C8K6RqEN/p+hWVtdwkmOWNMMuRg4/AmgDpa8R+Onw7udZjj8TaTA011bx+XdwoMs8Y5DgdyOc+30r26igD4L0/UL3SL+O9sLiS2uojlJY22spr0KL47+Ooo1j+2WkhUY3varuP1xXv8Ar/wv8H+I5zPfaNEtwxy01uTEzH328H8awR8AvA4OfJvyPQ3Rx/KgDw6/+MnjrUFKtrjwKeot4kj/AFAzXNxx+IPFuo7UXUNWumP+1K3P54r6q0/4O+BdOIZNCjnYdDcSNJ+hOK7Kx0+z02AQWVpBbRD+CGMIPyFAHxHrnhfW/DVyLfWNNntGIBBdcqw9mHB/OsavvqaGK4jMc0SSIf4XUEfkapf2BoxJJ0mwyRgn7Mn+FAGH4fxY/CiwbdgRaOr5z0/dZzmvke38V+IbNs22ualF6bbp/wDGvuAwRGDyDGnlbdvl7Rt24xjHpXPXXw98H3f+u8NaYf8Adt1X+WKAPle3+Kfji2x5fiW+OOzsH/8AQga0E+NPj1Fx/be7jq1vH/8AE19AXPwY8B3Rz/YYi/65TyL/AFrNf4BeB3ORBfJ7LdH+ooA+f9T+JvjTV4mhu/EF35TDBSIiIEf8BArA03S9Q1u+Sz0+0mu7mQ8RxKWJ9z6fU19U2fwO8CWjhzpk1wR2nuHIP4Aiu10nQdJ0K38jS9OtrOPuIYwufqep/GgDjPhR8Oh4G0iSa9KPrF4AZ2XkRqOkYPf1J7n6V6LRRQBHJEksbRyKGRwVZT0IPUV8YePvB134M8T3NhLG5tXcvaTEfLJGTxz6joR619p1narouma9ZGz1WxgvIDzsmQNg+o9D7igD448OePvE3hSMw6RqssFuW3GFgHTPrtYHH4VsT/Gnx7Pn/ieGP/rnBGP/AGWvcLr4CeB7mQulve22TnbFcnH/AI8DRb/APwNBgyQX0/8A10uT/wCygUAYPwI8Ya54lvtbi1rU5r1o44njEmPk5YHGB9K9urnvD3grw74UeR9E0yO0klUJI4ZmZgOcEkmuhoA+FvFH/I16x/1+zf8AoZr6l+B//JKdL/35v/RjVszfDbwZcTyTzeHLB5ZGLuxj5Yk5Jrc0rSdP0TT0sdNtIrW0jJKxRDCgk5P60AX65bx54OtPG/hmbS7giOYHzLafGTFIOh+h6H2NdTRQB8N+I/C2seFNRay1ezkgkBIV8ZSQeqt0IpdH8XeIfD2RpOs3dqmc7I5Ds/75PH6V9sahptlqtq1rf2cF1A3WOaMOv5GuGvvgl4EvZC40l7cntbzuo/LOKAPA/wDhdHj3ytn9un/e8iPP/oNUZ/in45uCQ/iW+H+4wT+QFe+r8AvA6nJhv2Hobo/0Fadn8GvAdmONDSb3nmd/60Acj+z/AOINT1xNdXVNSub2WNoWUzylyoIbpnp0r2ysvSPD2kaCjppOm21mr43+RGFLY6ZPetSgAooooAKKKKACiiigAooooAKKKKACiiigAooooAKKKKACiiigAooooAKKKKACiiigAooooAKKKKACiiigAooooAKKKKACiiigAooooAKKKKACiiigAooooAKKKKACiiigAooooAKKKKACiiigAooooAKKKKACiiigAooooAKKKKACiiigAooooAKKKKACiiigAooooAKKKKACiiigAooooAKKKKACiiigAooooAKKKKACiiigAooooAKKKKACiiigAooooAKKKKACiiigAooooAKKKKACiiigAooooAKKKKACiiigAooooAKKKKACiiigAooooAKKKKACiiigAooooAKKKKACiiigAooooAKKKKACiiigAooooAKKKKACiiigAooooAKKKKACiiigAooooAKKKKACiiigAooooAKKKKACiiigAooooAKKKKACiiigAooooAKKKKACiiigAooooAKKKKACiiigAooooAKKKKACiiigAooooAKKKKACiiigAooooAKKKKACiiigAooooAKKKKACiiigAooooAKKKKACiiigAooooAKKKKACiiigAooooAKKKKACiiigAooooAKKKKACiiigAooooAKKKKACiiigAooooAKKKKACiiigAooooAKKKKACiiigAooooAKKKKACiiigAooooAKKKKACiiigAooooAKKKKACiiigAooooAKKKKACiiigAooooAKKKKACiiigAooooAKKKKACiiigAooooAKKKKACiiigAooooAKKKKACiiigAooooAKKKKACiiigAooooAKKKKACiiigAooooAKKKKACiiigAooooAKKKKACiiigAooooAKKKKACiiigAooooAKKKKACiiigAooooAKKKKACiiigAooooAKKKKACiiigAooooAKKKKACiiigAooooAKKKKACiiigAooooAKKKKACiiigAooooAKKKKACiiigAooooAKKKKACiiigAooooAKKKKACiiigAooooAKKKKACiiigAooooAKKKKACiiigAooooAKKKKACiiigAooooAKKKKACiiigAooooAKKKKACiiigAooooAKKKKACiiigAooooAKKKKACiiigAooooAKKKKACiiigAooooAKKKKACiiigAooooAKKKKACiiigAooooAKKKKACiiigAooooAKKKKACiiigAooooAKKKKACiiigAooooAKKKKACiiigAooooAKKKKACiiigAooooAKKKKACiiigD//Z;" vertex="1" parent="1">
          <mxGeometry x="940" y="650" width="67.84" height="50" as="geometry" />
        </mxCell>
        <mxCell id="gK9rK_hi8yjl6UL4V2o0-83" value="VM" style="text;html=1;strokeColor=none;fillColor=none;align=center;verticalAlign=middle;whiteSpace=wrap;rounded=0;" vertex="1" parent="1">
          <mxGeometry x="890" y="630" width="60" height="30" as="geometry" />
        </mxCell>
        <mxCell id="hXnwSrLjqqCWxQIsoAqm-1" value="" style="image;aspect=fixed;perimeter=ellipsePerimeter;html=1;align=center;shadow=0;dashed=0;spacingTop=3;image=img/lib/active_directory/firewall.svg;" vertex="1" parent="1">
          <mxGeometry x="235" y="510" width="30.5" height="50" as="geometry" />
        </mxCell>
        <mxCell id="hXnwSrLjqqCWxQIsoAqm-7" style="edgeStyle=orthogonalEdgeStyle;rounded=0;orthogonalLoop=1;jettySize=auto;html=1;entryX=0.5;entryY=1;entryDx=0;entryDy=0;" edge="1" parent="1" source="hXnwSrLjqqCWxQIsoAqm-11" target="gK9rK_hi8yjl6UL4V2o0-13">
          <mxGeometry relative="1" as="geometry">
            <Array as="points" />
          </mxGeometry>
        </mxCell>
        <mxCell id="hXnwSrLjqqCWxQIsoAqm-5" value="" style="image;aspect=fixed;perimeter=ellipsePerimeter;html=1;align=center;shadow=0;dashed=0;spacingTop=3;image=img/lib/active_directory/firewall.svg;" vertex="1" parent="1">
          <mxGeometry x="739.5" y="510" width="30.5" height="50" as="geometry" />
        </mxCell>
        <mxCell id="hXnwSrLjqqCWxQIsoAqm-44" style="edgeStyle=orthogonalEdgeStyle;rounded=0;orthogonalLoop=1;jettySize=auto;html=1;entryX=0.5;entryY=1;entryDx=0;entryDy=0;" edge="1" parent="1" source="hXnwSrLjqqCWxQIsoAqm-11" target="gK9rK_hi8yjl6UL4V2o0-18">
          <mxGeometry relative="1" as="geometry">
            <Array as="points">
              <mxPoint x="698" y="320" />
            </Array>
          </mxGeometry>
        </mxCell>
        <mxCell id="hXnwSrLjqqCWxQIsoAqm-11" value="" style="image;aspect=fixed;perimeter=ellipsePerimeter;html=1;align=center;shadow=0;dashed=0;spacingTop=3;image=img/lib/active_directory/firewall.svg;" vertex="1" parent="1">
          <mxGeometry x="477.5" y="318" width="30.5" height="50" as="geometry" />
        </mxCell>
        <mxCell id="hXnwSrLjqqCWxQIsoAqm-14" value="" style="group" vertex="1" connectable="0" parent="1">
          <mxGeometry x="170" y="155" width="135" height="130" as="geometry" />
        </mxCell>
        <mxCell id="gK9rK_hi8yjl6UL4V2o0-94" value="" style="rounded=1;whiteSpace=wrap;html=1;fillColor=#f5f5f5;fontColor=#333333;strokeColor=#666666;" vertex="1" parent="hXnwSrLjqqCWxQIsoAqm-14">
          <mxGeometry width="135" height="130" as="geometry" />
        </mxCell>
        <mxCell id="gK9rK_hi8yjl6UL4V2o0-95" value="" style="image;aspect=fixed;perimeter=ellipsePerimeter;html=1;align=center;shadow=0;dashed=0;spacingTop=3;image=img/lib/active_directory/user_accounts.svg;" vertex="1" parent="hXnwSrLjqqCWxQIsoAqm-14">
          <mxGeometry x="55" y="50" width="50" height="48.5" as="geometry" />
        </mxCell>
        <mxCell id="gK9rK_hi8yjl6UL4V2o0-96" value="Office" style="text;html=1;strokeColor=none;fillColor=none;align=center;verticalAlign=middle;whiteSpace=wrap;rounded=0;" vertex="1" parent="hXnwSrLjqqCWxQIsoAqm-14">
          <mxGeometry x="10" y="10" width="60" height="30" as="geometry" />
        </mxCell>
        <mxCell id="hXnwSrLjqqCWxQIsoAqm-27" value="backbone" style="html=1;outlineConnect=0;fillColor=#CCCCCC;strokeColor=#6881B3;gradientColor=none;gradientDirection=north;strokeWidth=2;shape=mxgraph.networks.bus;gradientColor=none;gradientDirection=north;fontColor=#ffffff;perimeter=backbonePerimeter;backboneSize=20;" vertex="1" parent="1">
          <mxGeometry x="137.84" y="414" width="907.16" height="20" as="geometry" />
        </mxCell>
        <mxCell id="hXnwSrLjqqCWxQIsoAqm-33" value="" style="endArrow=classic;startArrow=classic;html=1;rounded=0;" edge="1" parent="1">
          <mxGeometry width="50" height="50" relative="1" as="geometry">
            <mxPoint x="490.5" y="414" as="sourcePoint" />
            <mxPoint x="490.5" y="364" as="targetPoint" />
          </mxGeometry>
        </mxCell>
        <mxCell id="hXnwSrLjqqCWxQIsoAqm-34" value="" style="endArrow=classic;startArrow=classic;html=1;rounded=0;" edge="1" parent="1">
          <mxGeometry width="50" height="50" relative="1" as="geometry">
            <mxPoint x="245" y="503" as="sourcePoint" />
            <mxPoint x="245" y="437" as="targetPoint" />
          </mxGeometry>
        </mxCell>
        <mxCell id="hXnwSrLjqqCWxQIsoAqm-35" value="" style="endArrow=classic;startArrow=classic;html=1;rounded=0;" edge="1" parent="1">
          <mxGeometry width="50" height="50" relative="1" as="geometry">
            <mxPoint x="754.25" y="506" as="sourcePoint" />
            <mxPoint x="754.25" y="440" as="targetPoint" />
          </mxGeometry>
        </mxCell>
        <mxCell id="hXnwSrLjqqCWxQIsoAqm-36" value="" style="endArrow=classic;startArrow=classic;html=1;rounded=0;exitX=0.483;exitY=0.067;exitDx=0;exitDy=0;exitPerimeter=0;" edge="1" parent="1" source="gK9rK_hi8yjl6UL4V2o0-40">
          <mxGeometry width="50" height="50" relative="1" as="geometry">
            <mxPoint x="249.5" y="626" as="sourcePoint" />
            <mxPoint x="249.5" y="560" as="targetPoint" />
          </mxGeometry>
        </mxCell>
        <mxCell id="hXnwSrLjqqCWxQIsoAqm-38" value="" style="endArrow=classic;startArrow=classic;html=1;rounded=0;exitX=0.5;exitY=0;exitDx=0;exitDy=0;" edge="1" parent="1" source="gK9rK_hi8yjl6UL4V2o0-77">
          <mxGeometry width="50" height="50" relative="1" as="geometry">
            <mxPoint x="754.5" y="626" as="sourcePoint" />
            <mxPoint x="754.5" y="560" as="targetPoint" />
          </mxGeometry>
        </mxCell>
        <mxCell id="hXnwSrLjqqCWxQIsoAqm-40" value="" style="endArrow=classic;html=1;rounded=0;" edge="1" parent="1">
          <mxGeometry width="50" height="50" relative="1" as="geometry">
            <mxPoint x="245" y="285" as="sourcePoint" />
            <mxPoint x="245" y="410" as="targetPoint" />
          </mxGeometry>
        </mxCell>
        <mxCell id="hXnwSrLjqqCWxQIsoAqm-41" value="Firewall" style="text;html=1;strokeColor=none;fillColor=none;align=center;verticalAlign=middle;whiteSpace=wrap;rounded=0;" vertex="1" parent="1">
          <mxGeometry x="508" y="350" width="60" height="30" as="geometry" />
        </mxCell>
        <mxCell id="hXnwSrLjqqCWxQIsoAqm-42" value="Firewall" style="text;html=1;strokeColor=none;fillColor=none;align=center;verticalAlign=middle;whiteSpace=wrap;rounded=0;" vertex="1" parent="1">
          <mxGeometry x="275" y="510" width="60" height="30" as="geometry" />
        </mxCell>
        <mxCell id="hXnwSrLjqqCWxQIsoAqm-43" value="Firewall" style="text;html=1;strokeColor=none;fillColor=none;align=center;verticalAlign=middle;whiteSpace=wrap;rounded=0;" vertex="1" parent="1">
          <mxGeometry x="780" y="510" width="60" height="30" as="geometry" />
        </mxCell>
        <mxCell id="hXnwSrLjqqCWxQIsoAqm-45" value="SY DC" style="text;html=1;strokeColor=none;fillColor=none;align=center;verticalAlign=middle;whiteSpace=wrap;rounded=0;" vertex="1" parent="1">
          <mxGeometry x="375" y="60" width="60" height="30" as="geometry" />
        </mxCell>
      </root>
    </mxGraphModel>
  </diagram>
</mxfile>
